<svg width="51" height="56" viewBox="0 0 51 56" fill="none" xmlns="http://www.w3.org/2000/svg">
<path d="M4.1978 10.9268L21.2257 1.12301C22.5023 0.387312 23.9504 0 25.4244 0C26.8985 0 28.3465 0.387312 29.6231 1.12301L46.6492 10.9356C47.9252 11.6703 48.9851 12.7272 49.7225 14C50.46 15.2729 50.849 16.717 50.8506 18.1874V37.8055C50.8506 39.277 50.4625 40.7225 49.7253 41.9967C48.9881 43.271 47.9278 44.329 46.651 45.0644L29.6249 54.877C28.3483 55.6127 26.9002 56 25.4262 56C23.9521 56 22.5041 55.6127 21.2275 54.877L4.1978 45.0715C2.92042 44.3351 1.8599 43.2758 1.12298 42.0003C0.386061 40.7248 -0.00125972 39.278 3.07801e-06 37.8055V18.1874C-0.000149711 16.7159 0.387688 15.2703 1.12454 13.9958C1.8614 12.7213 2.92132 11.6628 4.1978 10.9268Z" fill="white"/>
<path d="M23.1381 18.9591L15.4483 14.5822C15.8588 14.3388 16.2054 14.127 16.559 13.9274C18.5797 12.7754 20.6092 11.6392 22.6174 10.4661C23.0244 10.228 23.3123 10.2543 23.7086 10.4802C28.5165 13.2324 33.3314 15.9711 38.1535 18.6965C38.3041 18.7638 38.4297 18.8757 38.5128 19.0166C38.596 19.1574 38.6325 19.3203 38.6173 19.4826C38.5996 22.0142 38.5996 24.5458 38.6173 27.0774C38.6326 27.2599 38.5893 27.4425 38.4937 27.5996C38.3981 27.7566 38.2548 27.8801 38.0842 27.9528C35.8876 29.1783 33.7052 30.4301 31.5086 31.6749C31.3309 31.7782 31.1532 31.8885 30.8937 32.0425L38.5729 36.4194C38.333 36.5683 38.1535 36.6856 37.9669 36.7924C33.2278 39.4909 28.4886 42.1905 23.7495 44.8914C23.394 45.0927 23.1435 45.1242 22.7756 44.9124C20.5245 43.6075 18.2645 42.3236 15.9956 41.0607C15.8346 40.9898 15.6998 40.8714 15.61 40.7218C15.5203 40.5722 15.4799 40.3988 15.4945 40.2256C15.5111 34.7656 15.5111 29.3049 15.4945 23.8437C15.4945 23.4183 15.658 23.2152 16.0063 23.0209C18.1833 21.7953 20.348 20.5593 22.5161 19.325C22.7098 19.2147 22.8875 19.1062 23.1381 18.9591ZM23.3052 27.7269V36.3459L30.8813 32.0373L23.3052 27.7269ZM23.3052 19.0536V27.5518L30.7693 23.3045L23.3052 19.0536Z" fill="#0053E2"/>
</svg>
