<svg width="128" height="140" viewBox="0 0 128 140" fill="none" xmlns="http://www.w3.org/2000/svg">
<path d="M10.4945 27.3169L53.0643 2.80753C56.2557 0.968281 59.8759 0 63.561 0C67.2461 0 70.8663 0.968281 74.0577 2.80753L116.623 27.339C119.813 29.1758 122.463 31.8179 124.306 35.0001C126.15 38.1823 127.122 41.7926 127.126 45.4686V94.5138C127.126 98.1924 126.156 101.806 124.313 104.992C122.47 108.177 119.82 110.822 116.628 112.661L74.0621 137.192C70.8707 139.032 67.2505 140 63.5654 140C59.8803 140 56.2601 139.032 53.0687 137.192L10.4945 112.679C7.30106 110.838 4.64976 108.19 2.80746 105.001C0.965153 101.812 -0.00314931 98.1949 7.69503e-06 94.5138V45.4686C-0.000374277 41.7898 0.96922 38.1757 2.81136 34.9895C4.6535 31.8032 7.3033 29.1571 10.4945 27.3169Z" fill="white"/>
<path d="M57.8453 47.3978L38.6207 36.4555C39.647 35.8471 40.5134 35.3175 41.3975 34.8185C46.4491 31.9385 51.523 29.0979 56.5435 26.1654C57.5609 25.5701 58.2807 25.6358 59.2715 26.2004C71.2911 33.0809 83.3285 39.9278 95.3837 46.7412C95.7603 46.9096 96.0743 47.1892 96.2821 47.5414C96.4899 47.8936 96.5812 48.3008 96.5433 48.7065C96.4989 55.0355 96.4989 61.3645 96.5433 67.6935C96.5815 68.1498 96.4733 68.6063 96.2342 68.9989C95.9951 69.3915 95.6371 69.7003 95.2104 69.8819C89.719 72.9458 84.263 76.0753 78.7715 79.1872C78.3273 79.4455 77.883 79.7212 77.2343 80.1064L96.4323 91.0486C95.8325 91.4207 95.3837 91.7139 94.9172 91.9809C83.0694 98.7272 71.2215 105.476 59.3737 112.229C58.4851 112.732 57.8586 112.811 56.9389 112.281C51.3112 109.019 45.6613 105.809 39.9891 102.652C39.5864 102.475 39.2495 102.179 39.0251 101.805C38.8006 101.431 38.6997 100.997 38.7362 100.564C38.7776 86.9139 38.7776 73.2624 38.7362 59.6093C38.7362 58.5457 39.1449 58.038 40.0158 57.5522C45.4584 54.4883 50.8699 51.3983 56.2903 48.3125C56.7745 48.0368 57.2188 47.7654 57.8453 47.3978ZM58.2629 69.3173V90.8648L77.2032 80.0933L58.2629 69.3173ZM58.2629 47.6341V68.8796L76.9233 58.2613L58.2629 47.6341Z" fill="#0053E2"/>
</svg>
