<svg width="32" height="24" viewBox="0 0 32 24" fill="none" xmlns="http://www.w3.org/2000/svg">
<path d="M29.5992 4.79993C30.9246 4.79993 31.9991 3.72543 31.9991 2.39996C31.9991 1.0745 30.9246 0 29.5992 0C28.2737 0 27.1992 1.0745 27.1992 2.39996C27.1992 3.72543 28.2737 4.79993 29.5992 4.79993Z" fill="white"/>
<path d="M23.1997 4.79993H2.39996C1.76345 4.79993 1.15301 4.54708 0.702933 4.097C0.252853 3.64691 0 3.03647 0 2.39996C0 1.76345 0.252853 1.15301 0.702933 0.702933C1.15301 0.252852 1.76345 0 2.39996 0H23.1997C23.8362 0 24.4466 0.252852 24.8967 0.702933C25.3468 1.15301 25.5996 1.76345 25.5996 2.39996C25.5996 3.03647 25.3468 3.64691 24.8967 4.097C24.4466 4.54708 23.8362 4.79993 23.1997 4.79993ZM23.1997 14.3998H2.39996C1.76345 14.3998 1.15301 14.1469 0.702933 13.6969C0.252853 13.2468 0 12.6363 0 11.9998C0 11.3633 0.252853 10.7529 0.702933 10.3028C1.15301 9.85271 1.76345 9.59986 2.39996 9.59986H23.1997C23.8362 9.59986 24.4466 9.85271 24.8967 10.3028C25.3468 10.7529 25.5996 11.3633 25.5996 11.9998C25.5996 12.6363 25.3468 13.2468 24.8967 13.6969C24.4466 14.1469 23.8362 14.3998 23.1997 14.3998ZM13.5998 23.9996H2.39996C1.76345 23.9996 1.15301 23.7468 0.702933 23.2967C0.252853 22.8466 0 22.2362 0 21.5997C0 20.9632 0.252853 20.3527 0.702933 19.9026C1.15301 19.4526 1.76345 19.1997 2.39996 19.1997H13.5998C14.2363 19.1997 14.8467 19.4526 15.2968 19.9026C15.7469 20.3527 15.9998 20.9632 15.9998 21.5997C15.9998 22.2362 15.7469 22.8466 15.2968 23.2967C14.8467 23.7468 14.2363 23.9996 13.5998 23.9996Z" fill="white"/>
</svg>
