<svg width="18" height="18" viewBox="0 0 18 18" fill="none" xmlns="http://www.w3.org/2000/svg">
<path d="M7.2 13.8001V6.60007C7.2 5.94006 6.66 5.40006 6 5.40006H1.2C0.54 5.40006 0 5.94006 0 6.60007V13.8001C0 14.4601 0.54 15.0001 1.2 15.0001H6C6.66 15.0001 7.2 14.4601 7.2 13.8001ZM2.526 12.9001H2.262C1.932 12.9001 1.662 12.6301 1.662 12.3001C1.662 11.9701 1.932 11.7001 2.262 11.7001H2.526C2.856 11.7001 3.126 11.9701 3.126 12.3001C3.126 12.6301 2.856 12.9001 2.526 12.9001ZM2.526 11.1001H2.262C1.932 11.1001 1.662 10.8301 1.662 10.5001C1.662 10.1701 1.932 9.90007 2.262 9.90007H2.526C2.856 9.90007 3.126 10.1701 3.126 10.5001C3.126 10.8301 2.856 11.1001 2.526 11.1001ZM4.662 12.9001H4.398C4.068 12.9001 3.798 12.6301 3.798 12.3001C3.798 11.9701 4.068 11.7001 4.398 11.7001H4.662C4.992 11.7001 5.262 11.9701 5.262 12.3001C5.262 12.6301 4.992 12.9001 4.662 12.9001ZM4.662 11.1001H4.398C4.068 11.1001 3.798 10.8301 3.798 10.5001C3.798 10.1701 4.068 9.90007 4.398 9.90007H4.662C4.992 9.90007 5.262 10.1701 5.262 10.5001C5.262 10.8301 4.992 11.1001 4.662 11.1001ZM4.662 8.70007H2.262C1.932 8.70007 1.662 8.43007 1.662 8.10007C1.662 7.77007 1.932 7.50007 2.262 7.50007H4.662C4.992 7.50007 5.262 7.77007 5.262 8.10007C5.262 8.43007 4.992 8.70007 4.662 8.70007ZM14.1 4.20006H17.646L13.8 0.354065V3.90006C13.8 4.06806 13.932 4.20006 14.1 4.20006Z" fill="white"/>
<path d="M14.1 5.4C13.7022 5.4 13.3206 5.24196 13.0393 4.96066C12.758 4.67936 12.6 4.29782 12.6 3.9V0H5.09998C4.70215 0 4.32062 0.158035 4.03932 0.43934C3.75801 0.720644 3.59998 1.10218 3.59998 1.5V4.2H6.13798C7.46398 4.2 8.53797 5.274 8.53797 6.6V13.8C8.53797 15.126 7.46398 16.2 6.13798 16.2H3.59998V16.5C3.59998 16.8978 3.75801 17.2794 4.03932 17.5607C4.32062 17.842 4.70215 18 5.09998 18H16.5C16.8978 18 17.2793 17.842 17.5606 17.5607C17.8419 17.2794 18 16.8978 18 16.5V5.4H14.1ZM6.59998 2.4C6.26998 2.4 5.99998 2.13 5.99998 1.8C5.99998 1.47 6.26998 1.2 6.59998 1.2H10.8C11.13 1.2 11.4 1.47 11.4 1.8C11.4 2.13 11.13 2.4 10.8 2.4H6.59998ZM8.39998 4.2C8.39998 3.87 8.66998 3.6 8.99998 3.6H10.8C11.13 3.6 11.4 3.87 11.4 4.2C11.4 4.53 11.13 4.8 10.8 4.8H8.99998C8.66998 4.8 8.39998 4.53 8.39998 4.2ZM15.6 15.6H9.59998C9.26998 15.6 8.99998 15.33 8.99998 15C8.99998 14.67 9.26998 14.4 9.59998 14.4H9.89998V12C9.89998 11.67 10.17 11.4 10.5 11.4C10.83 11.4 11.1 11.67 11.1 12V14.4H12V9.6C12 9.27 12.27 9 12.6 9C12.93 9 13.2 9.27 13.2 9.6V14.4H14.1V7.2C14.1 6.87 14.37 6.6 14.7 6.6C15.03 6.6 15.3 6.87 15.3 7.2V14.4H15.6C15.93 14.4 16.2 14.67 16.2 15C16.2 15.33 15.93 15.6 15.6 15.6Z" fill="white"/>
</svg>
