<svg width="25" height="27" viewBox="0 0 25 27" fill="none" xmlns="http://www.w3.org/2000/svg">
<path fill-rule="evenodd" clip-rule="evenodd" d="M11.3354 17.5829C11.3354 16.8333 11.0598 16.1148 10.5689 15.5856C10.3262 15.3231 10.0379 15.1148 9.72054 14.9728C9.40319 14.8307 9.06302 14.7577 8.7195 14.7578H2.61585C1.92178 14.7578 1.25648 15.0554 0.766444 15.5856C0.523369 15.8477 0.330554 16.1591 0.199037 16.5018C0.0675196 16.8446 -0.000116463 17.2119 1.50536e-07 17.5829V24.1749C1.50536e-07 24.9245 0.275536 25.643 0.766444 26.1722C1.00918 26.4348 1.29747 26.643 1.61482 26.785C1.93216 26.9271 2.27233 27.0001 2.61585 27H8.7195C9.41358 27 10.0789 26.7024 10.5689 26.1722C10.812 25.9101 11.0048 25.5987 11.1363 25.256C11.2678 24.9133 11.3355 24.5459 11.3354 24.1749V17.5829ZM24.4146 17.5829C24.4146 16.8333 24.1391 16.1148 23.6482 15.5856C23.4054 15.3231 23.1171 15.1148 22.7998 14.9728C22.4824 14.8307 22.1423 14.7577 21.7988 14.7578H15.6951C15.001 14.7578 14.3357 15.0554 13.8457 15.5856C13.6026 15.8477 13.4098 16.1591 13.2783 16.5018C13.1468 16.8446 13.0791 17.2119 13.0793 17.5829V24.1749C13.0793 24.9245 13.3548 25.643 13.8457 26.1722C14.0884 26.4348 14.3767 26.643 14.6941 26.785C15.0114 26.9271 15.3516 27.0001 15.6951 27H21.7988C22.4928 27 23.1581 26.7024 23.6482 26.1722C23.8912 25.9101 24.0841 25.5987 24.2156 25.256C24.3471 24.9133 24.4147 24.5459 24.4146 24.1749V17.5829ZM9.59145 17.5829V24.1749C9.5918 24.2987 9.56948 24.4213 9.52578 24.5357C9.48209 24.6501 9.41787 24.7541 9.33683 24.8416C9.2558 24.9291 9.15954 24.9985 9.05359 25.0457C8.94765 25.0929 8.83411 25.117 8.7195 25.1166H2.61585C2.50125 25.117 2.38771 25.0929 2.28176 25.0457C2.17582 24.9985 2.07956 24.9291 1.99852 24.8416C1.91748 24.7541 1.85327 24.6501 1.80957 24.5357C1.76587 24.4213 1.74356 24.2987 1.7439 24.1749V17.5829C1.74356 17.4592 1.76587 17.3365 1.80957 17.2221C1.85327 17.1077 1.91748 17.0037 1.99852 16.9162C2.07956 16.8287 2.17582 16.7593 2.28176 16.7122C2.38771 16.665 2.50125 16.6409 2.61585 16.6412H8.7195C8.83411 16.6409 8.94765 16.665 9.05359 16.7122C9.15954 16.7593 9.2558 16.8287 9.33683 16.9162C9.41787 17.0037 9.48209 17.1077 9.52578 17.2221C9.56948 17.3365 9.5918 17.4592 9.59145 17.5829ZM22.6707 17.5829V24.1749C22.6711 24.2987 22.6487 24.4213 22.605 24.5357C22.5613 24.6501 22.4971 24.7541 22.4161 24.8416C22.3351 24.9291 22.2388 24.9985 22.1328 25.0457C22.0269 25.0929 21.9134 25.117 21.7988 25.1166H15.6951C15.5805 25.117 15.467 25.0929 15.361 25.0457C15.2551 24.9985 15.1588 24.9291 15.0778 24.8416C14.9967 24.7541 14.9325 24.6501 14.8888 24.5357C14.8451 24.4213 14.8228 24.2987 14.8232 24.1749V17.5829C14.8228 17.4592 14.8451 17.3365 14.8888 17.2221C14.9325 17.1077 14.9967 17.0037 15.0778 16.9162C15.1588 16.8287 15.2551 16.7593 15.361 16.7122C15.467 16.665 15.5805 16.6409 15.6951 16.6412H21.7988C21.9134 16.6409 22.0269 16.665 22.1328 16.7122C22.2388 16.7593 22.3351 16.8287 22.4161 16.9162C22.4971 17.0037 22.5613 17.1077 22.605 17.2221C22.6487 17.3365 22.6711 17.4592 22.6707 17.5829ZM20.5963 12.6795L24.2341 8.75067C24.7245 8.22089 25 7.50243 25 6.75331C25 6.00419 24.7245 5.28574 24.2341 4.75596L20.5963 0.827157C20.1058 0.297529 19.4406 0 18.7469 0C18.0533 0 17.3881 0.297529 16.8975 0.827157L13.2597 4.75596C12.7694 5.28574 12.4939 6.00419 12.4939 6.75331C12.4939 7.50243 12.7694 8.22089 13.2597 8.75067L16.8975 12.6795C17.3881 13.2091 18.0533 13.5066 18.7469 13.5066C19.4406 13.5066 20.1058 13.2091 20.5963 12.6795ZM11.3354 3.45734C11.3354 2.70774 11.0598 1.98922 10.5689 1.45998C10.3262 1.19746 10.0379 0.989221 9.72054 0.847183C9.40319 0.705144 9.06302 0.632097 8.7195 0.632223H2.61585C1.92178 0.632223 1.25648 0.929803 0.766444 1.45998C0.523369 1.72214 0.330554 2.03349 0.199037 2.37622C0.0675196 2.71896 -0.000116463 3.08634 1.50536e-07 3.45734V10.0493C1.50536e-07 10.7989 0.275536 11.5174 0.766444 12.0466C1.00918 12.3092 1.29747 12.5174 1.61482 12.6594C1.93216 12.8015 2.27233 12.8745 2.61585 12.8744H8.7195C9.41358 12.8744 10.0789 12.5768 10.5689 12.0466C10.812 11.7845 11.0048 11.4731 11.1363 11.1304C11.2678 10.7877 11.3355 10.4203 11.3354 10.0493V3.45734ZM23.0012 7.4191L19.3634 11.3479C19.1999 11.5244 18.9781 11.6236 18.7469 11.6236C18.5157 11.6236 18.294 11.5244 18.1305 11.3479L14.4927 7.4191C14.3292 7.2425 14.2374 7.00302 14.2374 6.75331C14.2374 6.50361 14.3292 6.26412 14.4927 6.08753L18.1305 2.15873C18.294 1.98219 18.5157 1.88301 18.7469 1.88301C18.9781 1.88301 19.1999 1.98219 19.3634 2.15873L23.0012 6.08753C23.1646 6.26412 23.2565 6.50361 23.2565 6.75331C23.2565 7.00302 23.1646 7.2425 23.0012 7.4191ZM9.59145 3.45734V10.0493C9.5918 10.1731 9.56948 10.2957 9.52578 10.4101C9.48209 10.5245 9.41787 10.6285 9.33683 10.716C9.2558 10.8035 9.15954 10.8729 9.05359 10.9201C8.94765 10.9673 8.83411 10.9914 8.7195 10.991H2.61585C2.50125 10.9914 2.38771 10.9673 2.28176 10.9201C2.17582 10.8729 2.07956 10.8035 1.99852 10.716C1.91748 10.6285 1.85327 10.5245 1.80957 10.4101C1.76587 10.2957 1.74356 10.1731 1.7439 10.0493V3.45734C1.74356 3.33357 1.76587 3.21095 1.80957 3.09653C1.85327 2.9821 1.91748 2.87814 1.99852 2.79062C2.07956 2.7031 2.17582 2.63375 2.28176 2.58656C2.38771 2.53937 2.50125 2.51526 2.61585 2.51564H8.7195C8.83411 2.51526 8.94765 2.53937 9.05359 2.58656C9.15954 2.63375 9.2558 2.7031 9.33683 2.79062C9.41787 2.87814 9.48209 2.9821 9.52578 3.09653C9.56948 3.21095 9.5918 3.33357 9.59145 3.45734Z" fill="white"/>
</svg>
