<svg width="17" height="17" viewBox="0 0 17 17" fill="none" xmlns="http://www.w3.org/2000/svg">
<path d="M5.45275 11.3901C4.94555 11.7678 4.53536 12.2506 4.25332 12.8019C3.97128 13.3531 3.8248 13.9583 3.825 14.5715V15.7857H1.275C0.5695 15.7857 0 15.2433 0 14.5715V13.762C0 12.1956 1.33025 10.9287 2.975 10.9287H3.825C4.4285 10.9287 4.98525 11.0987 5.45275 11.3901Z" fill="white"/>
<path d="M13.6 10.9288C14.6562 10.9288 15.5125 10.1133 15.5125 9.10739C15.5125 8.10147 14.6562 7.28601 13.6 7.28601C12.5438 7.28601 11.6875 8.10147 11.6875 9.10739C11.6875 10.1133 12.5438 10.9288 13.6 10.9288Z" fill="white"/>
<path d="M3.39993 10.9288C4.45617 10.9288 5.31242 10.1133 5.31242 9.10739C5.31242 8.10147 4.45617 7.28601 3.39993 7.28601C2.34368 7.28601 1.48743 8.10147 1.48743 9.10739C1.48743 10.1133 2.34368 10.9288 3.39993 10.9288Z" fill="white"/>
<path d="M17 13.762V14.5715C17 15.2433 16.4305 15.7857 15.725 15.7857H13.175V14.5715C13.175 13.2803 12.5375 12.1308 11.5472 11.3901C12.0147 11.0987 12.5715 10.9287 13.175 10.9287H14.025C15.6697 10.9287 17 12.1956 17 13.762Z" fill="white"/>
<path d="M8.49997 11.3334C9.79094 11.3334 10.8375 10.3368 10.8375 9.10732C10.8375 7.87787 9.79094 6.8812 8.49997 6.8812C7.20901 6.8812 6.16248 7.87787 6.16248 9.10732C6.16248 10.3368 7.20901 11.3334 8.49997 11.3334Z" fill="white"/>
<path d="M8.92499 11.3335H8.07499C6.20031 11.3335 4.67499 12.7861 4.67499 14.5715V15.7857C4.67499 16.4552 5.24704 17 5.94999 17H11.05C11.7529 17 12.325 16.4552 12.325 15.7857V14.5715C12.325 12.7861 10.7997 11.3335 8.92499 11.3335ZM14.6625 5.53909L13.637 5.88637C13.5697 5.90915 13.4976 5.91598 13.4269 5.90626C13.3563 5.89654 13.2891 5.87056 13.2314 5.83058C13.1736 5.7906 13.127 5.73782 13.0954 5.67681C13.0639 5.61579 13.0485 5.54838 13.0505 5.48041L13.0802 4.44425L12.4164 3.6226C12.3729 3.56869 12.3438 3.5055 12.3317 3.43849C12.3196 3.37148 12.3248 3.30268 12.3468 3.23801C12.3689 3.17334 12.4071 3.11475 12.4582 3.06731C12.5094 3.01987 12.5719 2.98499 12.6403 2.96569L13.6846 2.67265L14.3 1.81742C14.3403 1.76132 14.3944 1.71543 14.4576 1.68373C14.5208 1.65202 14.5911 1.63545 14.6625 1.63545C14.7339 1.63545 14.8042 1.65202 14.8674 1.68373C14.9305 1.71543 14.9847 1.76132 15.025 1.81742L15.6404 2.67265L16.6846 2.96569C16.9809 3.04867 17.0969 3.38947 16.9086 3.6226L16.2448 4.44425L16.2745 5.48041C16.2764 5.54835 16.2609 5.61571 16.2293 5.67667C16.1978 5.73763 16.1511 5.79037 16.0934 5.83033C16.0357 5.87029 15.9686 5.89627 15.898 5.90604C15.8273 5.9158 15.7553 5.90905 15.688 5.88637L14.6625 5.53909ZM2.33749 5.53909L1.31196 5.88637C1.24469 5.90915 1.17259 5.91598 1.10193 5.90626C1.03126 5.89654 0.964138 5.87056 0.906379 5.83058C0.84862 5.7906 0.801961 5.73782 0.770438 5.67681C0.738915 5.61579 0.723478 5.54838 0.725464 5.48041L0.755214 4.44425L0.091364 3.6226C0.0478683 3.56869 0.0188065 3.5055 0.0066882 3.43849C-0.00543012 3.37148 -0.000240764 3.30268 0.0218081 3.23801C0.043857 3.17334 0.0821027 3.11475 0.133243 3.06731C0.184383 3.01987 0.246881 2.98499 0.315339 2.96569L1.35956 2.67265L1.97496 1.81742C2.01532 1.76132 2.06942 1.71543 2.13259 1.68373C2.19576 1.65202 2.26608 1.63545 2.33749 1.63545C2.40889 1.63545 2.47922 1.65202 2.54239 1.68373C2.60555 1.71543 2.65966 1.76132 2.70001 1.81742L3.31541 2.67265L4.35964 2.96569C4.65586 3.04867 4.77189 3.38947 4.58361 3.6226L3.91976 4.44425L3.94951 5.48041C3.9514 5.54835 3.93589 5.61571 3.90434 5.67667C3.87279 5.73763 3.82614 5.79037 3.76841 5.83033C3.71068 5.87029 3.6436 5.89627 3.57298 5.90604C3.50235 5.9158 3.43029 5.90905 3.36301 5.88637L2.33749 5.53909ZM8.49999 4.62841L7.28406 5.04004C7.20431 5.06703 7.11885 5.0751 7.03508 5.06357C6.95131 5.05204 6.87175 5.02125 6.80328 4.97386C6.73482 4.92647 6.6795 4.86391 6.64212 4.79159C6.60475 4.71927 6.58643 4.63937 6.58876 4.55879L6.62404 3.33037L5.83694 2.35614C5.78538 2.29221 5.75094 2.2173 5.73658 2.13786C5.72223 2.05842 5.72839 1.97685 5.75454 1.90019C5.78069 1.82353 5.82604 1.75408 5.88667 1.69784C5.9473 1.6416 6.0214 1.60027 6.10256 1.5774L7.34059 1.22972L8.07031 0.215821C8.11816 0.149289 8.18231 0.0948642 8.25722 0.0572587C8.33212 0.0196533 8.41552 0 8.5002 0C8.58487 0 8.66827 0.0196533 8.74318 0.0572587C8.81808 0.0948642 8.88224 0.149289 8.93009 0.215821L9.65981 1.22972L10.8978 1.5774C10.979 1.60027 11.0531 1.6416 11.1137 1.69784C11.1744 1.75408 11.2197 1.82353 11.2459 1.90019C11.272 1.97685 11.2782 2.05842 11.2638 2.13786C11.2495 2.2173 11.215 2.29221 11.1635 2.35614L10.3764 3.33037L10.4116 4.55879C10.414 4.63937 10.3956 4.71927 10.3583 4.79159C10.3209 4.86391 10.2656 4.92647 10.1971 4.97386C10.1286 5.02125 10.0491 5.05204 9.96532 5.06357C9.88155 5.0751 9.79609 5.06703 9.71634 5.04004L8.49999 4.62841Z" fill="white"/>
</svg>
