<svg width="19" height="17" viewBox="0 0 19 17" fill="none" xmlns="http://www.w3.org/2000/svg">
<path d="M8.19647 12.1429H1.21429C0.880362 12.1429 0.607146 11.8697 0.607146 11.5358V1.21429C0.607146 0.880362 0.880362 0.607146 1.21429 0.607146H16.0894C16.4233 0.607146 16.6965 0.880362 16.6965 1.21429V8.19648C16.6965 8.36344 16.8331 8.50005 17.0001 8.50005C17.1671 8.50005 17.3037 8.36344 17.3037 8.19648V1.21429C17.3037 0.543396 16.7603 0 16.0894 0H1.21429C0.543396 0 0 0.543396 0 1.21429V11.5358C0 12.2067 0.543396 12.7501 1.21429 12.7501H8.19647C8.36344 12.7501 8.50005 12.6135 8.50005 12.4465C8.50005 12.2795 8.36344 12.1429 8.19647 12.1429Z" fill="white"/>
<path d="M13.9645 7.89301V10.3368C14.9207 10.4703 15.6736 11.2445 15.7768 12.2159H18.2145C18.1022 9.9057 16.2656 8.04176 13.9645 7.89301ZM15.3275 13.7641L17.0488 15.4884C17.3964 15.1047 17.6757 14.6642 17.8745 14.1861C18.0506 13.755 18.1629 13.2966 18.2024 12.823H15.7525C15.6893 13.1662 15.5422 13.4884 15.3245 13.7611L15.3275 13.7641Z" fill="white"/>
<path d="M13.6639 14.5683C12.4921 14.5683 11.5388 13.6151 11.5388 12.4403C11.5388 11.3717 12.3312 10.4822 13.3572 10.3365V7.89275C10.9863 8.05061 9.10722 10.0299 9.10722 12.4403C9.10722 14.8506 11.1503 16.9999 13.6639 16.9999C14.7567 16.9999 15.7889 16.6174 16.6176 15.9101L14.8903 14.1798C14.5328 14.4333 14.1052 14.5691 13.6669 14.5683H13.6639ZM9.41079 4.85702C9.41079 4.69613 9.36526 4.54434 9.28936 4.4138L10.2881 3.27237C10.3913 3.31487 10.5037 3.33915 10.6221 3.33915C10.7404 3.33915 10.8528 3.31487 10.956 3.27237L11.9547 4.4138C11.8819 4.54434 11.8333 4.69613 11.8333 4.85702C11.8333 5.35792 12.2431 5.76774 12.744 5.76774C13.2449 5.76774 13.6547 5.35792 13.6547 4.85702C13.6547 4.69613 13.6092 4.54434 13.5333 4.4138L14.5321 3.27237C14.6353 3.31487 14.7476 3.33915 14.866 3.33915C15.3669 3.33915 15.7767 2.92933 15.7767 2.42844C15.7767 1.92754 15.3669 1.51772 14.866 1.51772C14.3651 1.51772 13.9553 1.92754 13.9553 2.42844C13.9553 2.58933 14.0008 2.74112 14.0767 2.87165L13.078 4.01309C12.9747 3.97059 12.8624 3.9463 12.744 3.9463C12.6256 3.9463 12.5133 3.97059 12.4101 4.01309L11.4113 2.87165C11.4842 2.74112 11.5328 2.58933 11.5328 2.42844C11.5328 1.92754 11.1229 1.51772 10.6221 1.51772C10.1212 1.51772 9.71133 1.92754 9.71133 2.42844C9.71133 2.58933 9.75687 2.74112 9.83276 2.87165L8.83401 4.01309C8.73079 3.97059 8.61847 3.9463 8.50007 3.9463C7.99918 3.9463 7.58936 4.35612 7.58936 4.85702C7.58936 5.35792 7.99918 5.76774 8.50007 5.76774C9.00097 5.76774 9.41079 5.35792 9.41079 4.85702Z" fill="white"/>
<path d="M3.03569 7.28586H1.8214C1.65374 7.28586 1.51782 7.42177 1.51782 7.58943V10.9287C1.51782 11.0964 1.65374 11.2323 1.8214 11.2323H3.03569C3.20335 11.2323 3.33926 11.0964 3.33926 10.9287V7.58943C3.33926 7.42177 3.20335 7.28586 3.03569 7.28586Z" fill="white"/>
<path d="M5.4644 6.07143H4.25011C4.08245 6.07143 3.94653 6.20734 3.94653 6.375V10.9286C3.94653 11.0963 4.08245 11.2322 4.25011 11.2322H5.4644C5.63206 11.2322 5.76797 11.0963 5.76797 10.9286V6.375C5.76797 6.20734 5.63206 6.07143 5.4644 6.07143Z" fill="white"/>
<path d="M7.89287 8.19658H6.67857C6.51091 8.19658 6.375 8.33249 6.375 8.50015V10.9287C6.375 11.0964 6.51091 11.2323 6.67857 11.2323H7.89287C8.06052 11.2323 8.19644 11.0964 8.19644 10.9287V8.50015C8.19644 8.33249 8.06052 8.19658 7.89287 8.19658Z" fill="white"/>
<path d="M1.8214 2.12486H2.42854C2.59551 2.12486 2.73211 1.98825 2.73211 1.82129C2.73211 1.65432 2.59551 1.51772 2.42854 1.51772H1.8214C1.65443 1.51772 1.51782 1.65432 1.51782 1.82129C1.51782 1.98825 1.65443 2.12486 1.8214 2.12486ZM3.64283 2.12486H6.07142C6.23838 2.12486 6.37499 1.98825 6.37499 1.82129C6.37499 1.65432 6.23838 1.51772 6.07142 1.51772H3.64283C3.47587 1.51772 3.33926 1.65432 3.33926 1.82129C3.33926 1.98825 3.47587 2.12486 3.64283 2.12486ZM1.8214 3.64273H2.42854C2.59551 3.64273 2.73211 3.50612 2.73211 3.33915C2.73211 3.17219 2.59551 3.03558 2.42854 3.03558H1.8214C1.65443 3.03558 1.51782 3.17219 1.51782 3.33915C1.51782 3.50612 1.65443 3.64273 1.8214 3.64273ZM3.64283 3.64273H6.07142C6.23838 3.64273 6.37499 3.50612 6.37499 3.33915C6.37499 3.17219 6.23838 3.03558 6.07142 3.03558H3.64283C3.47587 3.03558 3.33926 3.17219 3.33926 3.33915C3.33926 3.50612 3.47587 3.64273 3.64283 3.64273ZM1.8214 5.16059H2.42854C2.59551 5.16059 2.73211 5.02399 2.73211 4.85702C2.73211 4.69005 2.59551 4.55345 2.42854 4.55345H1.8214C1.65443 4.55345 1.51782 4.69005 1.51782 4.85702C1.51782 5.02399 1.65443 5.16059 1.8214 5.16059ZM6.37499 4.85702C6.37499 4.69005 6.23838 4.55345 6.07142 4.55345H3.64283C3.47587 4.55345 3.33926 4.69005 3.33926 4.85702C3.33926 5.02399 3.47587 5.16059 3.64283 5.16059H6.07142C6.23838 5.16059 6.37499 5.02399 6.37499 4.85702Z" fill="white"/>
</svg>
