<svg width="28" height="24" viewBox="0 0 28 24" fill="none" xmlns="http://www.w3.org/2000/svg">
<path d="M25.4233 0H9.60588C8.18509 0 7.02916 1.3229 7.02916 2.95092C7.02916 4.57693 8.18509 5.89983 9.60588 5.89983H25.4233C26.8441 5.89983 28 4.57693 28 2.95092C28.0001 1.32284 26.8441 0 25.4233 0ZM2.57765 0C1.15637 0 0 1.32334 0 2.94991C0 4.57649 1.15637 5.89983 2.57765 5.89983C3.99892 5.89983 5.15524 4.57649 5.15524 2.94991C5.15524 1.32334 3.99892 0 2.57765 0ZM2.57765 9.05009C1.15637 9.05009 0 10.3734 0 12C0 13.6266 1.15637 14.9499 2.57765 14.9499C3.99892 14.9499 5.15524 13.6266 5.15524 12C5.15524 10.3734 3.99892 9.05009 2.57765 9.05009ZM2.57765 18.1002C1.15637 18.1002 0 19.4235 0 21.0501C0 22.6767 1.15637 24 2.57765 24C3.99892 24 5.15524 22.6767 5.15524 21.0501C5.15524 19.4235 3.99892 18.1002 2.57765 18.1002ZM25.4233 9.05009H9.60588C8.18509 9.05009 7.02916 10.373 7.02916 12.001C7.02916 13.627 8.18509 14.9499 9.60588 14.9499H25.4233C26.8441 14.9499 28 13.627 28 12.001C28.0001 10.3729 26.8441 9.05009 25.4233 9.05009ZM25.4233 18.1002H9.60588C8.18509 18.1002 7.02916 19.4231 7.02916 21.0511C7.02916 22.6771 8.18509 24 9.60588 24H25.4233C26.8441 24 28 22.6771 28 21.0511C28.0001 19.4231 26.8441 18.1002 25.4233 18.1002Z" fill="white"/>
</svg>
