<svg width="27" height="26" viewBox="0 0 27 26" fill="none" xmlns="http://www.w3.org/2000/svg">
<path fill-rule="evenodd" clip-rule="evenodd" d="M24.1279 8.01891H21.175V5.05502H23.4242C23.8118 5.05502 24.1279 5.35882 24.1279 5.73134V8.01891ZM8.45943 8.01891H10.7386V5.05502H8.45943C7.60891 5.05502 6.91687 5.71984 6.91687 6.53696C6.91687 7.35409 7.60891 8.01891 8.45943 8.01891ZM18.292 15.517C18.292 13.8532 19.7057 12.4946 21.437 12.4946H26.0884V9.49945C26.0884 9.12693 25.7723 8.82312 25.3847 8.82312H8.45949C8.42438 8.82311 8.38927 8.82219 8.35422 8.82036C7.58513 8.78801 6.9097 8.40298 6.49903 7.82989V13.7756C6.57205 13.7733 6.64527 13.7718 6.71892 13.7718C7.82716 13.7714 8.91841 14.0335 9.89611 14.535C10.0725 14.3596 10.3004 14.2401 10.5494 14.1925C11.2271 14.0623 11.8894 14.4862 12.0252 15.1375L12.3974 16.9219C12.4393 17.1227 12.4272 17.3304 12.3624 17.5255C12.2975 17.7205 12.182 17.8965 12.0268 18.0367C11.9357 18.1266 12.0053 18.1917 12.0742 18.1883C12.7037 18.1563 13.2714 18.5847 13.3764 19.1963C13.4364 19.5467 13.4665 19.9011 13.4664 20.2562C13.4664 20.9372 13.3564 21.5938 13.1529 22.2109H25.3847C25.7724 22.2109 26.0885 21.907 26.0885 21.5345V18.5394H21.4371C19.7057 18.5394 18.2921 17.1808 18.2921 15.5169L18.292 15.517ZM26.8379 13.9867V17.0474C26.8379 17.4266 26.5161 17.7358 26.1216 17.7358H21.437C20.1672 17.7358 19.1283 16.7373 19.1283 15.517C19.1283 14.2968 20.1673 13.2983 21.437 13.2983H26.1216C26.5161 13.2983 26.8379 13.6075 26.8379 13.9867ZM22.4141 15.5171C22.4141 15.0091 21.9856 14.5973 21.4571 14.5973C20.9285 14.5973 20.5 15.0091 20.5 15.5171C20.5 16.025 20.9285 16.4368 21.4571 16.4368C21.9856 16.4368 22.4141 16.025 22.4141 15.5171ZM6.71887 16.6741C8.77744 16.6741 10.4462 18.2778 10.4462 20.2562C10.4462 22.2345 8.77744 23.8383 6.71887 23.8383C4.6603 23.8383 2.9915 22.2345 2.9915 20.2562C2.9915 18.2778 4.6603 16.6741 6.71887 16.6741ZM6.71887 17.5173C6.60797 17.5173 6.50161 17.5597 6.42319 17.635C6.34477 17.7104 6.30072 17.8126 6.30072 17.9192V20.2562C6.3007 20.3332 6.32373 20.4086 6.36704 20.4734C6.41035 20.5382 6.47213 20.5897 6.54502 20.6217L8.35678 21.627C8.45243 21.6784 8.56532 21.6915 8.67096 21.6635C8.7766 21.6354 8.86647 21.5685 8.92107 21.4771C8.97567 21.3858 8.99061 21.2775 8.96263 21.1756C8.93466 21.0738 8.86603 20.9867 8.77164 20.9332L7.13697 20.0262V17.9192C7.13697 17.8126 7.09292 17.7104 7.0145 17.635C6.93608 17.5597 6.82977 17.5173 6.71887 17.5173ZM12.0708 18.996C11.9614 19.0132 11.8636 19.0715 11.7989 19.1581C11.7342 19.2447 11.7079 19.3524 11.7258 19.4575C11.771 19.7216 11.7938 19.9887 11.7939 20.2563C11.7939 22.9453 9.517 25.1333 6.71892 25.1333C3.92085 25.1333 1.64416 22.9453 1.64416 20.2563C1.64416 17.5672 3.92032 15.3794 6.71892 15.3794C7.84844 15.3787 8.94582 15.7407 9.83678 16.4079L9.38774 16.295C9.33465 16.2817 9.27934 16.2785 9.22497 16.2857C9.1706 16.2928 9.11824 16.3102 9.07087 16.3369C9.0235 16.3635 8.98205 16.3988 8.9489 16.4409C8.91574 16.4829 8.89153 16.5308 8.87764 16.5818C8.81868 16.7963 8.95249 17.0161 9.17552 17.0722L11.0608 17.5477C11.1295 17.5649 11.2016 17.5651 11.2703 17.5482C11.3391 17.5314 11.4023 17.498 11.4539 17.4513C11.5056 17.4045 11.5441 17.3459 11.5657 17.281C11.5873 17.216 11.5913 17.1469 11.5774 17.08L11.2052 15.2956C11.1601 15.0781 10.9396 14.9371 10.7133 14.9807C10.487 15.0241 10.3403 15.236 10.3857 15.4534L10.4713 15.8669C9.4142 15.0312 8.08768 14.5747 6.71887 14.5755C3.45936 14.5755 0.807693 17.1241 0.807693 20.2563C0.807693 23.3885 3.45936 25.9368 6.71887 25.9368C9.97838 25.9368 12.63 23.3885 12.63 20.2563C12.63 19.9448 12.6033 19.6322 12.5512 19.3272C12.5134 19.1081 12.2981 18.9596 12.0708 18.9959V18.996ZM20.3387 8.01896H11.5749V1.34719C11.5749 1.12753 11.7619 0.9478 11.9905 0.9478H19.9232C20.1517 0.9478 20.3388 1.12753 20.3388 1.34719V8.01891L20.3387 8.01896ZM16.9848 4.38668C16.6722 4.21037 16.3466 4.13577 16.0319 4.06359C15.9263 4.03938 15.8265 4.01662 15.7272 3.9902C15.4333 3.91149 15.2746 3.82599 15.1957 3.70418C15.1015 3.55961 15.1884 3.4373 15.2484 3.37722C15.4085 3.21663 15.7905 3.135 16.1569 3.18297C16.4485 3.22125 16.6796 3.33387 16.76 3.47698C16.8694 3.67243 17.1234 3.74532 17.3265 3.64018C17.3749 3.61515 17.4176 3.58121 17.4523 3.54029C17.487 3.49938 17.513 3.4523 17.5287 3.40175C17.5445 3.35119 17.5497 3.29815 17.5441 3.24565C17.5385 3.19315 17.5222 3.14222 17.4962 3.09577C17.2986 2.74289 16.8933 2.49369 16.3747 2.40262V2.06019C16.3747 1.83811 16.1877 1.65838 15.9569 1.65838C15.726 1.65838 15.5385 1.83811 15.5385 2.06019V2.39996C15.1764 2.4627 14.8563 2.60872 14.6447 2.82065C14.2732 3.19267 14.211 3.70679 14.4864 4.1299C14.7389 4.51839 15.1623 4.6729 15.5025 4.76418C15.6169 4.79492 15.7293 4.82064 15.8379 4.84555C16.1053 4.90658 16.3571 4.96425 16.5614 5.07973C16.8087 5.21923 16.793 5.33933 16.7842 5.41126C16.7696 5.52846 16.6884 5.63309 16.5677 5.69075C16.101 5.91384 15.264 5.776 15.0755 5.44492C14.9647 5.25022 14.7106 5.17899 14.5077 5.28553C14.3056 5.39208 14.2307 5.6362 14.3419 5.83095C14.5661 6.22522 15.0309 6.46815 15.5384 6.55992V6.90652C15.5384 7.12834 15.7256 7.30828 15.9568 7.30828C16.1879 7.30828 16.3746 7.12834 16.3746 6.90652V6.57569C16.5785 6.5459 16.7715 6.4909 16.9399 6.41028C17.3131 6.2318 17.5651 5.89465 17.614 5.50836C17.6725 5.04723 17.4494 4.64859 16.9847 4.38653L16.9848 4.38668Z" fill="#DA0032"/>
</svg>
