<svg width="19" height="19" viewBox="0 0 19 19" fill="none" xmlns="http://www.w3.org/2000/svg">
<path fill-rule="evenodd" clip-rule="evenodd" d="M15.6587 12.3174C13.8134 12.3174 12.3174 13.8133 12.3174 15.6587C12.3174 17.504 13.8134 19 15.6587 19C17.5041 19 19 17.504 19 15.6587C19 13.8134 17.5041 12.3174 15.6587 12.3174ZM15.9754 17.5912V17.7731C15.9754 17.8571 15.942 17.9376 15.8826 17.997C15.8233 18.0564 15.7427 18.0897 15.6587 18.0897C15.5747 18.0897 15.4942 18.0564 15.4348 17.997C15.3754 17.9376 15.3421 17.8571 15.3421 17.7731V17.5851C15.1472 17.547 14.9615 17.4744 14.8004 17.3671C14.5515 17.2013 14.3608 16.9566 14.28 16.6329C14.2701 16.5926 14.2683 16.5508 14.2745 16.5098C14.2808 16.4688 14.2951 16.4294 14.3165 16.3939C14.338 16.3584 14.3663 16.3275 14.3997 16.3029C14.4331 16.2783 14.4711 16.2606 14.5114 16.2507C14.5517 16.2408 14.5935 16.2389 14.6345 16.2452C14.6755 16.2514 14.7149 16.2657 14.7504 16.2872C14.7859 16.3087 14.8168 16.3369 14.8414 16.3704C14.8659 16.4038 14.8837 16.4417 14.8936 16.482C14.9327 16.6389 15.0265 16.7584 15.1493 16.8401C15.3014 16.9414 15.4967 16.9898 15.695 16.985C15.9657 16.9786 16.423 16.8619 16.415 16.525C16.4058 16.1215 15.9286 16.0105 15.6111 15.9583C15.0105 15.8598 14.4163 15.5771 14.3828 14.8876C14.3539 14.2921 14.7883 13.8601 15.3421 13.7369V13.5443C15.3421 13.4603 15.3754 13.3797 15.4348 13.3204C15.4942 13.261 15.5747 13.2276 15.6587 13.2276C15.7427 13.2276 15.8233 13.261 15.8826 13.3204C15.942 13.3797 15.9754 13.4603 15.9754 13.5443V13.7323C16.4145 13.8251 16.76 14.1059 16.9343 14.5212C16.9651 14.5983 16.9643 14.6844 16.9322 14.7609C16.9001 14.8374 16.8392 14.8983 16.7627 14.9304C16.6862 14.9625 16.6001 14.9633 16.523 14.9326C16.4459 14.9018 16.384 14.8421 16.3505 14.7661C16.2062 14.4225 15.8463 14.2785 15.4951 14.3492C15.2402 14.4006 14.9998 14.5715 15.0137 14.8579C15.0299 15.1925 15.4443 15.2909 15.7125 15.3349C16.376 15.4439 17.0276 15.7434 17.0458 16.5102C17.0608 17.1375 16.538 17.4957 15.9754 17.5912ZM6.19111 6.66096V0.801523C6.19111 0.360683 5.83043 0 5.38959 0H0.801523C0.360683 0 0 0.360683 0 0.801523V6.66096C0 7.1018 0.360683 7.46249 0.801523 7.46249H5.38959C5.83043 7.46249 6.19111 7.1018 6.19111 6.66096ZM2.11094 6.12778C2.11085 6.17662 2.0914 6.22343 2.05687 6.25796C2.02233 6.2925 1.97552 6.31194 1.92668 6.31204H1.23801C1.18917 6.31194 1.14236 6.2925 1.10782 6.25796C1.07329 6.22343 1.05384 6.17662 1.05375 6.12778V5.88822C1.05384 5.83938 1.07329 5.79257 1.10782 5.75803C1.14236 5.7235 1.18917 5.70405 1.23801 5.70396H1.92668C1.97552 5.70405 2.02233 5.7235 2.05687 5.75803C2.0914 5.79257 2.11085 5.83938 2.11094 5.88822V6.12778ZM2.11094 4.83566C2.11085 4.8845 2.0914 4.93131 2.05687 4.96585C2.02233 5.00038 1.97552 5.01982 1.92668 5.01992H1.23801C1.18917 5.01982 1.14236 5.00038 1.10782 4.96585C1.07329 4.93131 1.05384 4.8845 1.05375 4.83566V4.5961C1.05384 4.54726 1.07329 4.50045 1.10782 4.46591C1.14236 4.43138 1.18917 4.41193 1.23801 4.41184H1.92668C1.97552 4.41193 2.02233 4.43138 2.05687 4.46591C2.0914 4.50045 2.11085 4.54726 2.11094 4.5961V4.83566ZM2.11094 3.54354C2.11085 3.59238 2.0914 3.63919 2.05687 3.67373C2.02233 3.70826 1.97552 3.72771 1.92668 3.7278H1.23801C1.18917 3.72771 1.14236 3.70826 1.10782 3.67373C1.07329 3.63919 1.05384 3.59238 1.05375 3.54354V3.30398C1.05384 3.25514 1.07329 3.20833 1.10782 3.17379C1.14236 3.13926 1.18917 3.11982 1.23801 3.11972H1.92668C1.97552 3.11982 2.02233 3.13926 2.05687 3.17379C2.0914 3.20833 2.11085 3.25514 2.11094 3.30398V3.54354ZM3.62413 6.12778C3.62404 6.17662 3.60459 6.22343 3.57006 6.25796C3.53552 6.2925 3.48871 6.31194 3.43987 6.31204H2.7512C2.70236 6.31194 2.65555 6.2925 2.62101 6.25796C2.58648 6.22343 2.56703 6.17662 2.56694 6.12778V5.88822C2.56703 5.83938 2.58648 5.79257 2.62101 5.75803C2.65555 5.7235 2.70236 5.70405 2.7512 5.70396H3.43987C3.48871 5.70405 3.53552 5.7235 3.57006 5.75803C3.60459 5.79257 3.62404 5.83938 3.62413 5.88822V6.12778ZM3.62413 4.83566C3.62404 4.8845 3.60459 4.93131 3.57006 4.96585C3.53552 5.00038 3.48871 5.01982 3.43987 5.01992H2.7512C2.70236 5.01982 2.65555 5.00038 2.62101 4.96585C2.58648 4.93131 2.56703 4.8845 2.56694 4.83566V4.5961C2.56703 4.54726 2.58648 4.50045 2.62101 4.46591C2.65555 4.43138 2.70236 4.41193 2.7512 4.41184H3.43987C3.48871 4.41193 3.53552 4.43138 3.57006 4.46591C3.60459 4.50045 3.62404 4.54726 3.62413 4.5961V4.83566ZM3.62413 3.54354C3.62404 3.59238 3.60459 3.63919 3.57006 3.67373C3.53552 3.70826 3.48871 3.72771 3.43987 3.7278H2.7512C2.70236 3.72771 2.65555 3.70826 2.62101 3.67373C2.58648 3.63919 2.56703 3.59238 2.56694 3.54354V3.30398C2.56703 3.25514 2.58648 3.20833 2.62101 3.17379C2.65555 3.13926 2.70236 3.11982 2.7512 3.11972H3.43987C3.48871 3.11982 3.53552 3.13926 3.57006 3.17379C3.60459 3.20833 3.62404 3.25514 3.62413 3.30398V3.54354ZM5.13736 6.12778C5.13727 6.17662 5.11783 6.22343 5.08329 6.25796C5.04875 6.2925 5.00194 6.31194 4.9531 6.31204H4.26443C4.21559 6.31194 4.16878 6.2925 4.13424 6.25796C4.09971 6.22343 4.08027 6.17662 4.08017 6.12778V5.88822C4.08027 5.83938 4.09971 5.79257 4.13424 5.75803C4.16878 5.7235 4.21559 5.70405 4.26443 5.70396H4.9531C5.00194 5.70405 5.04875 5.7235 5.08329 5.75803C5.11783 5.79257 5.13727 5.83938 5.13736 5.88822V6.12778ZM5.13736 4.83566C5.13727 4.8845 5.11783 4.93131 5.08329 4.96585C5.04875 5.00038 5.00194 5.01982 4.9531 5.01992H4.26443C4.21559 5.01982 4.16878 5.00038 4.13424 4.96585C4.09971 4.93131 4.08027 4.8845 4.08017 4.83566V4.5961C4.08027 4.54726 4.09971 4.50045 4.13424 4.46591C4.16878 4.43138 4.21559 4.41193 4.26443 4.41184H4.9531C5.00194 4.41193 5.04875 4.43138 5.08329 4.46591C5.11783 4.50045 5.13727 4.54726 5.13736 4.5961V4.83566ZM5.13736 3.54354C5.13727 3.59238 5.11783 3.63919 5.08329 3.67373C5.04875 3.70826 5.00194 3.72771 4.9531 3.7278H4.26443C4.21559 3.72771 4.16878 3.70826 4.13424 3.67373C4.09971 3.63919 4.08027 3.59238 4.08017 3.54354V3.30398C4.08027 3.25514 4.09971 3.20833 4.13424 3.17379C4.16878 3.13926 4.21559 3.11982 4.26443 3.11972H4.9531C5.00194 3.11982 5.04875 3.13926 5.08329 3.17379C5.11783 3.20833 5.13727 3.25514 5.13736 3.30398V3.54354ZM5.30666 2.26516C5.30657 2.314 5.28712 2.36081 5.25259 2.39534C5.21805 2.42988 5.17124 2.44932 5.1224 2.44942H1.06871C1.01987 2.44932 0.973058 2.42988 0.938523 2.39534C0.903987 2.36081 0.884544 2.314 0.88445 2.26516V1.33471C0.884544 1.28587 0.903987 1.23906 0.938523 1.20452C0.973058 1.16999 1.01987 1.15054 1.06871 1.15045H5.1224C5.17124 1.15054 5.21805 1.16999 5.25259 1.20452C5.28712 1.23906 5.30657 1.28587 5.30666 1.33471V2.26516ZM13.4077 3.72954V2.03355C13.4398 2.0482 13.4693 2.06898 13.4962 2.09586L15.1924 3.79212C15.2183 3.81763 15.2395 3.8476 15.2547 3.88059H13.5588C13.5187 3.88053 13.4803 3.86459 13.452 3.83628C13.4237 3.80797 13.4078 3.76958 13.4077 3.72954ZM12.7183 12.9844V9.40829C12.7183 9.34289 12.7717 9.28954 12.8371 9.28954H14.0079C14.0733 9.28954 14.1266 9.34289 14.1266 9.40829V11.9903C14.4946 11.8365 14.8838 11.7393 15.2809 11.7021V4.51392H13.5588C13.126 4.51392 12.7744 4.16231 12.7744 3.72958V2.00735H6.8244V6.66092C6.8244 7.4501 6.17872 8.09574 5.38959 8.09574H3.71905V16.6905C3.71905 16.8569 3.85474 16.9926 4.02115 16.9926H11.9138C11.7613 16.5644 11.6837 16.1131 11.6841 15.6586C11.6841 14.6289 12.0758 13.6905 12.7183 12.9844ZM9.06086 4.37348H12.6401C12.7241 4.37348 12.8047 4.40685 12.8641 4.46623C12.9234 4.52562 12.9568 4.60616 12.9568 4.69015C12.9568 4.77414 12.9234 4.85468 12.8641 4.91407C12.8047 4.97345 12.7241 5.00682 12.6401 5.00682H9.06086C8.97688 5.00682 8.89633 4.97345 8.83695 4.91407C8.77756 4.85468 8.7442 4.77414 8.7442 4.69015C8.7442 4.60616 8.77756 4.52562 8.83695 4.46623C8.89633 4.40685 8.97688 4.37348 9.06086 4.37348ZM9.06086 5.73824H12.6401C12.7241 5.73824 12.8047 5.7716 12.8641 5.83099C12.9234 5.89037 12.9568 5.97092 12.9568 6.0549C12.9568 6.13889 12.9234 6.21943 12.8641 6.27882C12.8047 6.33821 12.7241 6.37157 12.6401 6.37157H9.06086C8.97688 6.37157 8.89633 6.33821 8.83695 6.27882C8.77756 6.21943 8.7442 6.13889 8.7442 6.0549C8.7442 5.97092 8.77756 5.89037 8.83695 5.83099C8.89633 5.7716 8.97688 5.73824 9.06086 5.73824ZM7.64433 4.37348H8.10429C8.18828 4.37348 8.26882 4.40685 8.32821 4.46623C8.3876 4.52562 8.42096 4.60616 8.42096 4.69015C8.42096 4.77414 8.3876 4.85468 8.32821 4.91407C8.26882 4.97345 8.18828 5.00682 8.10429 5.00682H7.64433C7.56035 5.00682 7.4798 4.97345 7.42042 4.91407C7.36103 4.85468 7.32767 4.77414 7.32767 4.69015C7.32767 4.60616 7.36103 4.52562 7.42042 4.46623C7.4798 4.40685 7.56035 4.37348 7.64433 4.37348ZM7.64433 5.73824H8.10429C8.18828 5.73824 8.26882 5.7716 8.32821 5.83099C8.3876 5.89037 8.42096 5.97092 8.42096 6.0549C8.42096 6.13889 8.3876 6.21943 8.32821 6.27882C8.26882 6.33821 8.18828 6.37157 8.10429 6.37157H7.64433C7.56035 6.37157 7.4798 6.33821 7.42042 6.27882C7.36103 6.21943 7.32767 6.13889 7.32767 6.0549C7.32767 5.97092 7.36103 5.89037 7.42042 5.83099C7.4798 5.7716 7.56035 5.73824 7.64433 5.73824ZM4.9875 10.777L7.60249 8.74075C7.64303 8.70905 7.69071 8.68776 7.74137 8.67873C7.79203 8.66971 7.84413 8.67323 7.89311 8.68898L10.3242 9.47669L12.1946 7.5903C12.1114 7.59552 12.0295 7.5677 11.9667 7.51289C11.9038 7.45808 11.8652 7.3807 11.8591 7.29755C11.8529 7.2144 11.8799 7.1322 11.934 7.06879C11.9881 7.00538 12.0651 6.96588 12.1482 6.95887L12.9994 6.88421C13.206 6.8664 13.3734 7.05169 13.3387 7.25353L13.2459 8.08351C13.2371 8.16263 13.1987 8.2355 13.1385 8.28758C13.0783 8.33966 13.0007 8.3671 12.9211 8.36444C12.8415 8.36178 12.7659 8.3292 12.7093 8.27321C12.6527 8.21722 12.6194 8.14194 12.6158 8.06241L10.6356 10.0596C10.5945 10.1008 10.5429 10.13 10.4864 10.1437C10.4298 10.1575 10.3706 10.1553 10.3152 10.1375L7.85832 9.34127L5.37589 11.2742C5.30979 11.3237 5.22692 11.3453 5.14508 11.3344C5.06323 11.3235 4.98892 11.2809 4.9381 11.2159C4.88727 11.1508 4.86398 11.0684 4.87322 10.9863C4.88245 10.9043 4.92348 10.8291 4.9875 10.777ZM6.28168 15.5131C6.28168 15.5785 6.22832 15.6319 6.16293 15.6319H4.99213C4.92674 15.6319 4.87338 15.5786 4.87338 15.5131V12.9992C4.87338 12.9338 4.92674 12.8805 4.99213 12.8805H6.16293C6.22832 12.8805 6.28168 12.9338 6.28168 12.9992V15.5131ZM8.89667 15.5132C8.89667 15.5786 8.84331 15.6319 8.77792 15.6319H7.60712C7.54173 15.6319 7.48837 15.5786 7.48837 15.5132V11.2556C7.48837 11.1902 7.54173 11.1369 7.60712 11.1369H8.77792C8.84331 11.1369 8.89667 11.1902 8.89667 11.2556V15.5132ZM11.5117 15.5132C11.5117 15.5786 11.4583 15.6319 11.3929 15.6319H10.2221C10.1567 15.6319 10.1034 15.5786 10.1034 15.5132V11.8427C10.1034 11.8112 10.1159 11.781 10.1382 11.7587C10.1605 11.7365 10.1906 11.7239 10.2221 11.7239H11.3929C11.4583 11.7239 11.5117 11.7772 11.5117 11.8427V15.5132Z" fill="white"/>
</svg>
