<svg width="49" height="49" viewBox="0 0 49 49" fill="none" xmlns="http://www.w3.org/2000/svg">
<path d="M12.25 0C12.611 0 12.9572 0.143403 13.2125 0.39866C13.4677 0.653918 13.6111 1.00012 13.6111 1.36111C13.6111 1.7221 13.4677 2.0683 13.2125 2.32356C12.9572 2.57882 12.611 2.72222 12.25 2.72222H6.80556C5.72259 2.72222 4.68398 3.15243 3.9182 3.9182C3.15243 4.68398 2.72222 5.72259 2.72222 6.80556V12.3344C2.72222 12.6954 2.57882 13.0416 2.32356 13.2968C2.0683 13.5521 1.7221 13.6955 1.36111 13.6955C1.00012 13.6955 0.653918 13.5521 0.39866 13.2968C0.143403 13.0416 0 12.6954 0 12.3344V6.80556C0 5.00061 0.717012 3.26959 1.9933 1.9933C3.26959 0.717012 5.00061 0 6.80556 0H12.25ZM36.75 2.72222C36.389 2.72222 36.0428 2.57882 35.7875 2.32356C35.5323 2.0683 35.3889 1.7221 35.3889 1.36111C35.3889 1.00012 35.5323 0.653918 35.7875 0.39866C36.0428 0.143403 36.389 0 36.75 0H42.1944C43.9994 0 45.7304 0.717012 47.0067 1.9933C48.283 3.26959 49 5.00061 49 6.80556V12.25C49 12.611 48.8566 12.9572 48.6013 13.2125C48.3461 13.4677 47.9999 13.6111 47.6389 13.6111C47.2779 13.6111 46.9317 13.4677 46.6764 13.2125C46.4212 12.9572 46.2778 12.611 46.2778 12.25V6.80556C46.2778 5.72259 45.8476 4.68398 45.0818 3.9182C44.316 3.15243 43.2774 2.72222 42.1944 2.72222H36.75ZM46.2778 36.75C46.2778 36.389 46.4212 36.0428 46.6764 35.7875C46.9317 35.5323 47.2779 35.3889 47.6389 35.3889C47.9999 35.3889 48.3461 35.5323 48.6013 35.7875C48.8566 36.0428 49 36.389 49 36.75V42.1944C49 43.9994 48.283 45.7304 47.0067 47.0067C45.7304 48.283 43.9994 49 42.1944 49H36.75C36.389 49 36.0428 48.8566 35.7875 48.6013C35.5323 48.3461 35.3889 47.9999 35.3889 47.6389C35.3889 47.2779 35.5323 46.9317 35.7875 46.6764C36.0428 46.4212 36.389 46.2778 36.75 46.2778H42.1944C43.2774 46.2778 44.316 45.8476 45.0818 45.0818C45.8476 44.316 46.2778 43.2774 46.2778 42.1944V36.75ZM0 36.75C0 36.389 0.143403 36.0428 0.39866 35.7875C0.653918 35.5323 1.00012 35.3889 1.36111 35.3889C1.7221 35.3889 2.0683 35.5323 2.32356 35.7875C2.57882 36.0428 2.72222 36.389 2.72222 36.75V42.1944C2.72222 43.2774 3.15243 44.316 3.9182 45.0818C4.68398 45.8476 5.72259 46.2778 6.80556 46.2778H12.25C12.611 46.2778 12.9572 46.4212 13.2125 46.6764C13.4677 46.9317 13.6111 47.2779 13.6111 47.6389C13.6111 47.9999 13.4677 48.3461 13.2125 48.6013C12.9572 48.8566 12.611 49 12.25 49H6.80556C5.00061 49 3.26959 48.283 1.9933 47.0067C0.717012 45.7304 0 43.9994 0 42.1944V36.75ZM13.6111 14.9722C13.6111 14.6112 13.7545 14.265 14.0098 14.0098C14.265 13.7545 14.6112 13.6111 14.9722 13.6111C15.3332 13.6111 15.6794 13.7545 15.9347 14.0098C16.1899 14.265 16.3333 14.6112 16.3333 14.9722V17.6944C16.3333 18.0554 16.1899 18.4016 15.9347 18.6569C15.6794 18.9122 15.3332 19.0556 14.9722 19.0556C14.6112 19.0556 14.265 18.9122 14.0098 18.6569C13.7545 18.4016 13.6111 18.0554 13.6111 17.6944V14.9722ZM35.3889 14.9722C35.3889 14.6112 35.5323 14.265 35.7875 14.0098C36.0428 13.7545 36.389 13.6111 36.75 13.6111C37.111 13.6111 37.4572 13.7545 37.7125 14.0098C37.9677 14.265 38.1111 14.6112 38.1111 14.9722V17.6944C38.1111 18.0554 37.9677 18.4016 37.7125 18.6569C37.4572 18.9122 37.111 19.0556 36.75 19.0556C36.389 19.0556 36.0428 18.9122 35.7875 18.6569C35.5323 18.4016 35.3889 18.0554 35.3889 17.6944V14.9722ZM24.5 14.9722C24.5 14.6112 24.6434 14.265 24.8987 14.0098C25.1539 13.7545 25.5001 13.6111 25.8611 13.6111C26.2221 13.6111 26.5683 13.7545 26.8236 14.0098C27.0788 14.265 27.2222 14.6112 27.2222 14.9722V25.8611C27.2222 26.9441 26.792 27.9827 26.0262 28.7485C25.2605 29.5142 24.2219 29.9444 23.1389 29.9444C22.7779 29.9444 22.4317 29.801 22.1764 29.5458C21.9212 29.2905 21.7778 28.9443 21.7778 28.5833C21.7778 28.2223 21.9212 27.8761 22.1764 27.6209C22.4317 27.3656 22.7779 27.2222 23.1389 27.2222C23.4999 27.2222 23.8461 27.0788 24.1013 26.8236C24.3566 26.5683 24.5 26.2221 24.5 25.8611V14.9722ZM13.8833 34.8444C13.7761 34.7015 13.6981 34.5387 13.6537 34.3656C13.6093 34.1924 13.5995 34.0122 13.6248 33.8353C13.6501 33.6583 13.71 33.4881 13.801 33.3343C13.8921 33.1805 14.0126 33.0461 14.1556 32.9389C14.2986 32.8316 14.4613 32.7536 14.6344 32.7093C14.8076 32.6649 14.9878 32.6551 15.1647 32.6803C15.3417 32.7056 15.5119 32.7655 15.6657 32.8566C15.8195 32.9476 15.9539 33.0681 16.0611 33.2111C18.5411 36.5186 21.3286 38.1111 24.5 38.1111C27.6714 38.1111 30.4589 36.5186 32.9389 33.2111C33.1555 32.9223 33.4779 32.7314 33.8353 32.6803C34.1926 32.6293 34.5557 32.7223 34.8444 32.9389C35.1332 33.1555 35.3242 33.4779 35.3752 33.8353C35.4263 34.1926 35.3333 34.5557 35.1167 34.8444C32.1522 38.7971 28.5888 40.8333 24.5 40.8333C20.4112 40.8333 16.8478 38.7971 13.8833 34.8444Z" fill="black"/>
</svg>
