<svg width="32" height="32" viewBox="0 0 32 32" fill="none" xmlns="http://www.w3.org/2000/svg">
<path d="M1 5.65121H16.2253C16.6842 7.73788 18.5494 9.30442 20.7739 9.30442C22.9984 9.30442 24.8637 7.73794 25.3226 5.65121H31C31.5522 5.65121 32 5.2039 32 4.65218C32 4.10047 31.5522 3.65315 31 3.65315H25.3221C24.8623 1.56754 22.9945 0 20.7739 0C18.5522 0 16.6852 1.56729 16.2257 3.65315H1C0.44775 3.65315 0 4.10047 0 4.65218C0 5.2039 0.44775 5.65121 1 5.65121ZM18.1173 4.6548L18.1174 4.64406C18.1217 3.18504 19.3134 1.99813 20.7739 1.99813C22.2324 1.99813 23.4241 3.18342 23.4304 4.64175L23.4306 4.65643C23.4283 6.11795 22.2374 7.30642 20.7739 7.30642C19.3111 7.30642 18.1206 6.11913 18.1173 4.65849L18.1173 4.6548ZM31 26.3487H25.3221C24.8623 24.2632 22.9945 22.6956 20.7739 22.6956C18.5522 22.6956 16.6852 24.2629 16.2257 26.3487H1C0.44775 26.3487 0 26.796 0 27.3478C0 27.8995 0.44775 28.3468 1 28.3468H16.2253C16.6842 30.4335 18.5494 32 20.7739 32C22.9984 32 24.8637 30.4335 25.3226 28.3468H31C31.5522 28.3468 32 27.8995 32 27.3478C32 26.796 31.5522 26.3487 31 26.3487ZM20.7739 30.0019C19.3111 30.0019 18.1206 28.8146 18.1173 27.354L18.1173 27.3504L18.1174 27.3396C18.1217 25.8806 19.3134 24.6936 20.7739 24.6936C22.2324 24.6936 23.4241 25.8789 23.4304 27.3372L23.4306 27.3519C23.4285 28.8136 22.2376 30.0019 20.7739 30.0019ZM31 15.001H15.7747C15.3158 12.9143 13.4506 11.3478 11.2261 11.3478C9.00156 11.3478 7.13631 12.9143 6.67744 15.001H1C0.44775 15.001 0 15.4483 0 16C0 16.5518 0.44775 16.999 1 16.999H6.67794C7.13775 19.0846 9.0055 20.6522 11.2261 20.6522C13.4478 20.6522 15.3148 19.0848 15.7743 16.999H31C31.5522 16.999 32 16.5518 32 16C32 15.4483 31.5522 15.001 31 15.001ZM13.8827 15.9974L13.8826 16.0081C13.8782 17.4671 12.6866 18.6541 11.2261 18.6541C9.76763 18.6541 8.57588 17.4688 8.56956 16.0105L8.56938 15.9959C8.57156 14.5342 9.7625 13.3459 11.2261 13.3459C12.6889 13.3459 13.8794 14.5331 13.8827 15.9938L13.8827 15.9974Z" fill="white"/>
</svg>
