<svg width="46" height="52" viewBox="0 0 46 52" fill="none" xmlns="http://www.w3.org/2000/svg">
<path d="M13.4428 42.6317C11.8971 39.8597 11.0797 36.4619 11.0797 32.7829C11.0797 26.6003 16.432 21.5674 22.9979 21.5674C29.5765 21.5674 34.9161 26.6004 34.9161 32.7829C34.9161 33.4856 35.4909 34.0604 36.1935 34.0604C36.8961 34.0604 37.471 33.4856 37.471 32.7829C37.471 25.1823 30.9817 19.0125 22.998 19.0125C15.0143 19.0125 8.52478 25.1952 8.52478 32.7829C8.52478 36.8962 9.45733 40.7411 11.2201 43.8836C12.9446 46.9621 14.1454 48.3801 16.3553 50.6154C16.6108 50.8709 16.9302 50.9987 17.2622 50.9987C17.5816 50.9987 17.9137 50.8837 18.1436 50.6154C18.6546 50.1301 18.6546 49.3125 18.1565 48.8143C16.1892 46.8345 15.0907 45.5699 13.4428 42.6317ZM8.79304 6.6089C13.1746 4.22011 17.952 3.00661 23.0234 3.00661C28.1074 3.00661 32.3612 4.09245 37.2537 6.62171C37.4453 6.71117 37.6369 6.76219 37.8414 6.76219C38.3012 6.76219 38.7483 6.50675 38.9782 6.07239C39.2976 5.44642 39.0549 4.66728 38.4289 4.34789C33.2171 1.65264 28.4651 0.451843 23.0234 0.451843C17.5305 0.451843 12.3315 1.76761 7.56673 4.3607C6.94076 4.7056 6.72364 5.47205 7.05572 6.09802C7.40062 6.72387 8.16707 6.9411 8.79304 6.6089Z" fill="black"/>
<path d="M22.9084 12.7916C14.6691 12.7916 7.13248 17.4031 3.72181 24.531C2.55933 26.9453 1.9718 29.73 1.9718 32.7958C1.9718 36.2448 2.58496 39.5405 3.83677 42.9C4.09222 43.5643 4.82034 43.8964 5.48463 43.6537C6.14892 43.3982 6.48101 42.6701 6.23826 42.0058C4.71807 37.931 4.53927 34.7885 4.53927 32.7958C4.53927 30.1132 5.03746 27.699 6.03383 25.6296C9.02296 19.3702 15.6527 15.3337 22.9211 15.3337C33.1276 15.3337 41.4307 23.1642 41.4307 32.7958C41.4307 35.5422 39.0419 37.7649 36.1167 37.7649C33.1916 37.7649 30.8028 35.5294 30.8028 32.7958C30.8028 28.6442 27.2771 25.2718 22.9339 25.2718C18.5907 25.2718 15.0651 28.6442 15.0651 32.7958C15.0651 37.8415 17.0323 42.5808 20.5963 46.1319C23.3555 48.8783 26.0125 50.3857 30.0873 51.497C30.1895 51.5353 30.3045 51.5482 30.4194 51.5482C30.9814 51.5482 31.4925 51.1777 31.6457 50.6156C31.8374 49.9386 31.4286 49.236 30.7515 49.0444C27.1492 48.0608 24.7988 46.7323 22.3845 44.3308C19.3059 41.265 17.607 37.1645 17.607 32.8086C17.607 30.0622 19.9958 27.8395 22.921 27.8395C25.8462 27.8395 28.2349 30.075 28.2349 32.8086C28.2349 36.9602 31.7734 40.3326 36.1038 40.3326C40.4342 40.3326 43.9727 36.9602 43.9727 32.8086C43.9728 21.7718 34.52 12.7916 22.9084 12.7916Z" fill="black"/>
<path d="M45.7612 18.0802C43.2191 14.529 40 11.7442 36.1806 9.77709C28.133 5.63829 17.8626 5.65111 9.82779 9.8026C5.99557 11.7825 2.7637 14.5929 0.234432 18.1696C-0.174298 18.7445 -0.0338237 19.5364 0.541009 19.9453C0.770942 20.0986 1.02638 20.1752 1.28194 20.1752C1.67798 20.1752 2.0739 19.9964 2.32946 19.6515C4.61597 16.4069 7.54127 13.8649 11.0031 12.0765C18.3226 8.29546 27.686 8.28264 35.0183 12.051C38.4673 13.8139 41.3798 16.3431 43.6791 19.5622C44.0878 20.137 44.8926 20.2648 45.4674 19.8559C46.0422 19.447 46.17 18.655 45.7612 18.0802ZM38.2373 43.475C37.2155 43.6538 36.1808 43.7177 35.5676 43.7177C33.0128 43.7177 30.8923 43.1174 29.0912 41.8911C25.9871 39.7834 24.1348 36.3855 24.1348 32.7959C24.1348 32.0933 23.5599 31.5185 22.8573 31.5185C22.1547 31.5185 21.5799 32.0933 21.5799 32.7959C21.5799 37.2413 23.8537 41.4312 27.6476 44.0115C29.8575 45.5061 32.5273 46.2725 35.5675 46.2725C35.9252 46.2725 37.1898 46.2597 38.6844 45.9914C39.3742 45.8636 39.8469 45.1995 39.7191 44.5097C39.5913 43.8199 38.9271 43.3473 38.2373 43.475Z" fill="black"/>
</svg>
