<svg width="25" height="25" viewBox="0 0 25 25" fill="none" xmlns="http://www.w3.org/2000/svg">
<path d="M17.9062 17.3731L14.6016 18.4512C14.4375 17.8887 14.0156 17.4434 13.4766 17.209L9.60938 15.6152C8.01562 14.959 6.16406 15.4277 5.08594 16.7637H4.00781V16.3652C4.00781 16.1309 3.82031 15.9434 3.58594 15.9434H0.421875C0.1875 15.9434 0 16.1309 0 16.3652V23.2793C0 23.5137 0.1875 23.6777 0.398437 23.7012H3.5625C3.79688 23.7012 3.96094 23.5137 3.98438 23.3027V22.9043H5.20312L9.89062 24.4277C10.7812 24.709 11.7422 24.6856 12.6094 24.3574L19.4297 21.7559C20.625 21.3106 21.2578 19.9746 20.7891 18.7559C20.4141 17.584 19.1016 16.9512 17.9062 17.3731ZM3.1875 22.8809H0.84375V16.7871H3.1875V22.8809ZM4.875 22.084H4.00781V17.584H4.875V22.084ZM19.1719 20.9824L12.3516 23.584C11.6484 23.8418 10.875 23.8652 10.1719 23.6309L5.69531 22.1777V17.3027C6.5625 16.2246 8.01562 15.8496 9.30469 16.3652L13.1719 17.959C13.7578 18.2168 14.0391 18.8731 13.7813 19.459C13.5469 20.0449 12.8672 20.3262 12.3047 20.0918L8.88281 18.709C8.67188 18.6152 8.4375 18.709 8.34375 18.9199C8.25 19.1309 8.34375 19.3887 8.57812 19.4824L12 20.8652C13.0078 21.2637 14.1562 20.7949 14.5781 19.7637C14.6484 19.5996 14.6953 19.4356 14.6953 19.2715L18.1875 18.1231C18.9844 17.8652 19.8281 18.2871 20.0859 19.084C20.3203 19.8809 19.9219 20.7012 19.1719 20.9824ZM24.375 0.919922H21.2109C20.9766 0.919922 20.8125 1.10742 20.7891 1.3418V1.74023H19.5703L14.8828 0.216797C13.9922 -0.0644532 13.0312 -0.0410157 12.1641 0.287109L9 1.48242L7.64062 0.123047C7.47656 -0.0410156 7.21875 -0.0410156 7.05469 0.123047L4.125 3.07617L2.69531 4.50586C2.41406 4.78711 2.69531 5.11523 2.69531 5.0918L12.1641 14.5606C12.3281 14.7246 12.5859 14.7246 12.75 14.5606L17.1094 10.2012C17.2734 10.0371 17.2734 9.77931 17.1094 9.61524L16.8047 9.31056C17.9297 9.26368 18.9844 8.74806 19.7109 7.88087H20.7891V8.27931C20.7891 8.51368 20.9766 8.67774 21.1875 8.70118H24.375C24.6094 8.70118 24.7734 8.51368 24.7969 8.27931V1.3418C24.7734 1.10742 24.5859 0.919922 24.375 0.919922ZM7.33594 1.01367L8.15625 1.83398C7.64062 2.13867 7.03125 2.13867 6.51562 1.83398L7.33594 1.01367ZM4.38281 5.63086L3.5625 4.81055L4.38281 3.99023C4.66406 4.48242 4.66406 5.11523 4.38281 5.63086ZM12.4453 13.6934L11.625 12.8731C12.1406 12.5684 12.7734 12.5684 13.2656 12.8731L12.4453 13.6934ZM13.875 12.2871C13.0312 11.6777 11.8828 11.6777 11.0391 12.2871L4.96875 6.2168C5.57812 5.37305 5.57812 4.22461 4.96875 3.38086L5.92969 2.41992C6.84375 3.07617 8.10938 2.95898 8.76562 2.41992L10.6172 4.24805C10.4297 4.45898 10.2891 4.69336 10.1953 4.92773C10.1016 5.16211 10.0547 5.44336 10.0781 5.70117C9.16406 5.58398 8.32031 6.26367 8.22656 7.17774C8.10938 8.16212 8.88281 9.05274 9.89062 9.05274C10.7578 9.05274 11.4609 8.39649 11.5547 7.55274L14.625 8.81837C14.2031 9.63868 14.2734 10.5996 14.8125 11.3496L13.875 12.2871ZM10.5 7.97462C10.1719 8.30274 9.63281 8.30274 9.28125 7.97462C8.95312 7.64649 8.95312 7.10743 9.28125 6.75586C9.58594 6.45117 10.1016 6.42773 10.4297 6.70898C10.8516 7.06056 10.8281 7.62306 10.5 7.97462ZM15.4219 10.7402C15.1172 10.2481 15.1172 9.61524 15.4219 9.09962H15.4453L16.2422 9.89649L15.4219 10.7402ZM19.0781 7.31837C18.2812 8.30274 16.9688 8.72462 15.7734 8.34962C15.7734 8.34962 13.0547 7.24806 11.6016 6.63867C11.0625 6.42773 10.7344 5.79492 10.9453 5.18555C11.1562 4.57617 11.8594 4.27148 12.4687 4.50586L15.8906 5.88867C16.1016 5.98242 16.3359 5.86523 16.4297 5.6543C16.5234 5.44336 16.4062 5.20898 16.1953 5.11523L12.7969 3.75586C12.3047 3.56836 11.7656 3.56836 11.2734 3.7793L9.60938 2.13867L12.4219 1.06055C13.125 0.802734 13.8984 0.779297 14.6016 0.990234L19.0781 2.44336V7.31837ZM20.7891 7.06056H19.9219V2.56055H20.7891V7.06056ZM23.9531 7.85743H21.6094V1.76367H23.9531V7.85743Z" fill="white"/>
</svg>
