<svg width="23" height="23" viewBox="0 0 23 23" fill="none" xmlns="http://www.w3.org/2000/svg">
<path d="M4.2075 10.7232C10.397 8.27314 12.6605 5.26736 13.4695 3.63105L12.7304 3.27748C12.5307 3.18192 12.5072 2.86721 12.7061 2.74421L15.5496 0.985481C15.7026 0.890807 15.8943 0.98253 15.9379 1.17129L16.7493 4.67847C16.806 4.92373 16.5848 5.12154 16.385 5.02578L15.4963 4.60066C13.4825 7.44467 10.191 10.678 4.2075 10.7232ZM17.607 7.68394H18.4048V19.4522C18.4048 19.6148 18.5238 19.7473 18.6698 19.7473H20.9445C21.0905 19.7473 21.2095 19.6148 21.2095 19.4522V7.68394H22.0073C22.2748 7.68394 22.4241 7.34198 22.2591 7.10773L20.3108 4.34197C20.0546 3.97832 19.5597 3.97832 19.3036 4.34197L17.3553 7.10773C17.1902 7.34203 17.3396 7.68394 17.607 7.68394ZM13.6963 9.99075C13.5503 9.99075 13.4313 10.1233 13.4313 10.2858V19.4523C13.4313 19.6148 13.5503 19.7474 13.6963 19.7474H15.971C16.117 19.7474 16.236 19.6148 16.236 19.4523V10.2858C16.236 10.1233 16.117 9.99075 15.971 9.99075H13.6963ZM8.72286 12.2975C8.57687 12.2975 8.45782 12.43 8.45782 12.5926V19.4523C8.45782 19.6148 8.57687 19.7474 8.72286 19.7474H10.9975C11.1435 19.7474 11.2626 19.6148 11.2626 19.4523V12.5926C11.2626 12.4301 11.1435 12.2975 10.9975 12.2975H8.72286ZM22.0304 21.5535H1.8622V2.34658C1.8622 1.99872 1.60892 1.71671 1.29649 1.71671C0.984055 1.71671 0.73077 1.99872 0.73077 2.34658V22.1833C0.73077 22.5312 0.984055 22.8132 1.29649 22.8132H22.0304C22.3429 22.8132 22.5962 22.5312 22.5962 22.1833C22.5962 21.8355 22.3429 21.5535 22.0304 21.5535ZM3.74943 19.7473H6.02409C6.17008 19.7473 6.28913 19.6148 6.28913 19.4522V14.8994C6.28913 14.7368 6.17008 14.6043 6.02409 14.6043H3.74943C3.60344 14.6043 3.4844 14.7368 3.4844 14.8994V19.4522C3.4844 19.6148 3.60344 19.7473 3.74943 19.7473Z" fill="#004BD5"/>
</svg>
