<svg width="25" height="25" viewBox="0 0 25 25" fill="none" xmlns="http://www.w3.org/2000/svg">
<path d="M8.38278 10.9302H9.75867L10.1121 10.7569C10.2463 10.6917 10.3873 10.6406 10.5326 10.6047V9.67173H8.38278V10.9302ZM12.7284 22.3535C12.6161 22.266 12.4766 22.2185 12.3329 22.2188C12.2348 22.2187 12.1379 22.2402 12.0495 22.2817C11.9611 22.3233 11.8835 22.3838 11.8225 22.4587L11.1109 23.3334C11.0051 23.4649 10.9573 23.6321 10.9778 23.7981C10.9984 23.9641 11.0857 24.1153 11.2206 24.2185C11.3554 24.3217 11.5267 24.3684 11.6969 24.3483C11.867 24.3282 12.022 24.2431 12.1278 24.1115L12.8355 23.2365C12.9412 23.1055 12.9893 22.9389 12.9692 22.7733C12.9491 22.6078 12.8626 22.4568 12.7284 22.3535ZM10.6698 4.62454L12.461 3.57584C12.5279 3.53664 12.6044 3.51593 12.6824 3.51593C12.7605 3.51593 12.837 3.53664 12.9039 3.57584L14.6951 4.62454C14.7088 4.63287 14.7246 4.63729 14.7407 4.63729C14.7568 4.63729 14.7726 4.63287 14.7863 4.62454C14.8004 4.6173 14.8122 4.60636 14.8203 4.59295C14.8284 4.57954 14.8326 4.56419 14.8323 4.54861V0.86264H10.5326V4.54861C10.5321 4.5644 10.5361 4.58002 10.5442 4.59367C10.5524 4.60733 10.5643 4.61846 10.5786 4.6258C10.5924 4.63394 10.6083 4.63815 10.6244 4.63792C10.6405 4.6377 10.6562 4.63306 10.6698 4.62454Z" fill="#FF7B00"/>
<path d="M7.52216 0.86264C7.2941 0.86264 7.07537 0.951031 6.9141 1.10837C6.75283 1.2657 6.66223 1.47909 6.66223 1.7016V11.7691C6.66265 11.9167 6.70331 12.0615 6.78004 12.1886H7.0922C7.15634 12.1889 7.21966 12.1745 7.27708 12.1467L8.131 11.7272C7.9557 11.675 7.80209 11.5695 7.69257 11.4261C7.58305 11.2827 7.52334 11.109 7.52216 10.9302V9.67172C7.52216 9.44922 7.61276 9.23583 7.77403 9.07849C7.9353 8.92115 8.15403 8.83276 8.3821 8.83276H10.5319C10.76 8.83276 10.9787 8.92115 11.14 9.07849C11.3013 9.23583 11.3919 9.44922 11.3919 9.67172V10.5321C11.7241 10.5622 12.0462 10.6595 12.3378 10.8177C12.6965 10.6173 13.1025 10.5114 13.5159 10.5107C13.885 10.51 14.2489 10.5951 14.5775 10.759L17.4024 12.1433C17.4612 12.1718 17.5262 12.1862 17.592 12.1853H18.5835C18.6596 12.0591 18.7002 11.9155 18.7013 11.7691V1.7016C18.7013 1.47909 18.6107 1.2657 18.4494 1.10837C18.2881 0.951031 18.0694 0.86264 17.8413 0.86264H15.6915V4.54861C15.6918 4.71291 15.6474 4.87435 15.5628 5.01641C15.4782 5.15847 15.3564 5.27605 15.21 5.35713C15.0635 5.4382 14.8976 5.47986 14.7292 5.47784C14.5608 5.47582 14.3959 5.43019 14.2516 5.34563L12.6818 4.42487L11.1119 5.34395C10.9677 5.42844 10.803 5.47406 10.6348 5.47616C10.4665 5.47825 10.3007 5.43674 10.1543 5.35586C10.0079 5.27499 9.88607 5.15765 9.80133 5.01582C9.7166 4.874 9.67197 4.71277 9.67199 4.54861V0.86264H7.52216Z" fill="#FF7B00"/>
<path d="M2.7903 17.659C3.81946 17.7576 4.82653 18.0124 5.77512 18.4141L6.34913 17.7052C6.59813 17.4007 6.96035 17.2046 7.35689 17.1595C7.75343 17.1144 8.15217 17.224 8.46628 17.4644C8.71154 17.6556 8.8889 17.9173 8.97321 18.2123C9.08272 18.1726 9.19655 18.1453 9.31245 18.1309C9.70889 18.0862 10.1073 18.1969 10.4201 18.4387C10.7328 18.6805 10.9344 19.0337 10.9803 19.4204C10.9922 19.532 10.9912 19.6446 10.9773 19.756C11.29 19.7678 11.5909 19.8755 11.8372 20.0639C12.038 20.2199 12.1947 20.4232 12.2925 20.6547C12.3903 20.8862 12.426 21.1382 12.3962 21.3869C12.712 21.3977 13.0161 21.5067 13.2638 21.6982C13.5247 21.9014 13.7088 22.1835 13.7874 22.5C13.8659 22.8165 13.8344 23.1495 13.6977 23.4466C13.9782 23.6795 14.2544 23.9172 14.5262 24.1597C14.648 24.2807 14.8141 24.3497 14.9879 24.3515C15.1617 24.3533 15.3292 24.2878 15.4537 24.1694C15.5746 24.0514 15.6425 23.8913 15.6425 23.7245C15.6425 23.5577 15.5746 23.3976 15.4537 23.2796C15.373 23.201 15.3276 23.0943 15.3276 22.983C15.3275 22.8717 15.3728 22.765 15.4534 22.6863C15.5341 22.6076 15.6434 22.5633 15.7575 22.5633C15.8715 22.5633 15.9809 22.6074 16.0616 22.6861C16.1214 22.7449 16.1925 22.7916 16.2709 22.8234C16.3493 22.8553 16.4334 22.8716 16.5183 22.8715C16.645 22.8704 16.7686 22.8329 16.8736 22.7637C16.9786 22.6945 17.0604 22.5966 17.1087 22.4823C17.1571 22.368 17.1699 22.2424 17.1454 22.121C17.121 21.9997 17.0605 21.8881 16.9714 21.8001C16.8925 21.7215 16.8485 21.6157 16.8488 21.5057C16.8491 21.3956 16.8937 21.2901 16.973 21.2118C17.0523 21.1335 17.16 21.0888 17.2728 21.0873C17.3856 21.0858 17.4945 21.1275 17.576 21.2036C17.6983 21.3211 17.8631 21.387 18.0347 21.387C18.2064 21.387 18.3712 21.3211 18.4935 21.2036C18.5534 21.1452 18.601 21.0758 18.6334 20.9994C18.6659 20.9231 18.6826 20.8412 18.6826 20.7586C18.6826 20.6759 18.6659 20.594 18.6334 20.5177C18.601 20.4413 18.5534 20.3719 18.4935 20.3135C18.4129 20.2348 18.3676 20.1282 18.3676 20.0169C18.3676 19.9057 18.4129 19.799 18.4935 19.7203C18.5741 19.6417 18.6835 19.5975 18.7975 19.5975C18.9115 19.5975 19.0209 19.6417 19.1015 19.7203C19.2228 19.8384 19.3872 19.9048 19.5585 19.9048C19.7299 19.9048 19.8943 19.8384 20.0156 19.7203C20.0802 19.6561 20.1309 19.5797 20.1647 19.4959C20.1984 19.4121 20.2146 19.3225 20.2121 19.2325C20.2109 19.1604 20.1946 19.0892 20.1641 19.0235C20.1337 18.9578 20.0897 18.8988 20.0349 18.8503C18.5236 17.5521 13.6173 14.0142 13.5678 13.9785L11.4025 15.9572C11.1186 16.2247 10.7395 16.3745 10.3447 16.3752C9.95002 16.3759 9.57037 16.2274 9.28543 15.9609C9.00049 15.6944 8.8324 15.3306 8.81644 14.9458C8.80047 14.5611 8.93787 14.1852 9.1998 13.8971L11.6076 11.4222C11.2408 11.3112 10.8444 11.3412 10.4996 11.5061L7.66611 12.8967C7.48749 12.9845 7.29 13.0297 7.08996 13.0284H2.7903V17.659Z" fill="#FF7B00"/>
<path d="M7.93451 18.1203C7.82087 18.0328 7.68026 17.9853 7.5355 17.9856C7.43744 17.9855 7.34062 18.007 7.25226 18.0485C7.16389 18.09 7.08626 18.1503 7.02513 18.2252L6.04997 19.4278C5.99726 19.4926 5.95816 19.567 5.93489 19.6466C5.91163 19.7261 5.90466 19.8094 5.91438 19.8916C5.9241 19.9738 5.95032 20.0534 5.99155 20.1257C6.03278 20.198 6.08821 20.2617 6.15466 20.3131C6.22112 20.3645 6.29731 20.4027 6.37888 20.4254C6.46045 20.4481 6.54581 20.4549 6.63007 20.4454C6.71433 20.4359 6.79586 20.4103 6.86999 20.3701C6.94412 20.3299 7.0094 20.2758 7.06211 20.211L8.04071 19.0045C8.14591 18.8732 8.19377 18.7067 8.17388 18.5411C8.154 18.3756 8.06798 18.2243 7.93451 18.1203ZM0.642715 12.188H1.93261V18.4802H0.642715V12.188ZM11.3059 20.7206C11.1929 20.634 11.0532 20.587 10.9094 20.5872C10.8132 20.5872 10.7181 20.608 10.6312 20.6483C10.5442 20.6886 10.4676 20.7472 10.4068 20.8201L9.4209 22.0332C9.31479 22.1644 9.26646 22.3314 9.28654 22.4974C9.30662 22.6634 9.39346 22.8148 9.52796 22.9183C9.66247 23.0218 9.83361 23.069 10.0037 23.0494C10.1739 23.0298 10.3291 22.9451 10.4352 22.8138L11.4129 21.6049C11.4655 21.54 11.5044 21.4656 11.5274 21.3861C11.5505 21.3065 11.5572 21.2232 11.5473 21.1411C11.5373 21.059 11.5109 20.9796 11.4695 20.9074C11.4281 20.8353 11.3725 20.7718 11.3059 20.7206ZM9.88698 19.0943C9.75224 18.9926 9.58207 18.9464 9.41286 18.9656C9.24365 18.9847 9.08882 19.0676 8.98147 19.1967L7.73715 20.7328C7.6843 20.7971 7.64517 20.871 7.62205 20.9502C7.59894 21.0295 7.59232 21.1125 7.60257 21.1942C7.61739 21.3177 7.66935 21.4341 7.7519 21.5288C7.83446 21.6234 7.9439 21.6921 8.06643 21.7262C8.18896 21.7603 8.31908 21.7581 8.44038 21.7201C8.56168 21.6821 8.66872 21.6099 8.748 21.5126L9.99491 19.9769C10.0994 19.8455 10.1466 19.6792 10.1264 19.514C10.1062 19.3489 10.0202 19.1981 9.88698 19.0943ZM22.571 17.653V13.027H17.592C17.3902 13.0278 17.1912 12.9815 17.0115 12.8919L14.1871 11.5076C13.8974 11.3715 13.5713 11.3274 13.2546 11.3813C12.9379 11.4353 12.6465 11.5846 12.4212 11.8084L9.83367 14.467C9.7758 14.5355 9.73252 14.6146 9.70636 14.6996C9.68021 14.7846 9.67171 14.8738 9.68136 14.9621C9.69101 15.0503 9.71862 15.1358 9.76256 15.2135C9.80651 15.2912 9.86591 15.3596 9.93729 15.4146C10.0654 15.5081 10.2237 15.5535 10.3832 15.5426C10.5428 15.5318 10.6931 15.4654 10.8067 15.3555L12.9952 13.3713C13.1394 13.2406 13.3253 13.1621 13.5217 13.149C13.7182 13.1358 13.9132 13.1889 14.0744 13.2992C14.2756 13.4439 18.6897 16.6274 20.4014 18.0519C21.1013 17.8183 21.8319 17.6839 22.571 17.653ZM23.4309 12.188H24.7208V18.4802H23.4309V12.188Z" fill="#FF7B00"/>
</svg>
