<svg width="18" height="19" viewBox="0 0 18 19" fill="none" xmlns="http://www.w3.org/2000/svg">
<path fill-rule="evenodd" clip-rule="evenodd" d="M9 3.16036C11.1033 3.16036 12.8084 4.66513 12.8084 6.52131C12.8084 8.37753 11.1033 9.88226 9 9.88226C6.89671 9.88226 5.19173 8.37753 5.19173 6.52131C5.19173 4.66517 6.89671 3.16036 9 3.16036ZM9.34542 12.6927V19L16.3951 16.5809V12.6366L10.8828 14.5282C10.7225 14.5829 10.5441 14.5245 10.4608 14.3971L9.34542 12.6927ZM8.65458 19V12.6927L7.53954 14.3972C7.49705 14.4619 7.42902 14.5106 7.34846 14.5338C7.2679 14.5571 7.18045 14.5533 7.10284 14.5232L1.60497 12.6366V16.5809L8.65458 19ZM16.5896 9.27805L9.49914 11.7112L10.9095 13.867L18 11.4339L16.5896 9.27805ZM8.50086 11.7112L1.41033 9.27805L0 11.4339L7.09058 13.867L8.50086 11.7112ZM9 10.492C7.10867 10.492 5.48992 9.46203 4.82455 8.00299L2.20955 8.90031L9 11.2305L15.7904 8.90031L13.1755 8.00299C12.5101 9.46199 10.8914 10.492 9 10.492ZM15.953 6.29671C16.1439 6.29671 16.2984 6.43321 16.2984 6.60156C16.2984 6.76991 16.1439 6.90641 15.953 6.90641H14.3353C14.2436 6.90641 14.1558 6.87429 14.091 6.81712C14.0262 6.75995 13.9898 6.68241 13.9898 6.60156C13.9898 6.52071 14.0262 6.44317 14.091 6.386C14.1558 6.32883 14.2436 6.29671 14.3353 6.29671H15.953ZM8.65458 0.304848C8.65458 0.223997 8.69097 0.146458 8.75575 0.0892879C8.82053 0.0321178 8.90839 0 9 0C9.09161 0 9.17947 0.0321178 9.24425 0.0892879C9.30903 0.146458 9.34542 0.223997 9.34542 0.304848V1.73264C9.34542 1.81349 9.30903 1.89103 9.24425 1.9482C9.17947 2.00537 9.09161 2.03749 9 2.03749C8.90839 2.03749 8.82053 2.00537 8.75575 1.9482C8.69097 1.89103 8.65458 1.81349 8.65458 1.73264V0.304848ZM5.16764 1.24877C5.12344 1.17904 5.11218 1.09674 5.13629 1.01972C5.16041 0.942709 5.21796 0.877192 5.29646 0.837384C5.37496 0.797576 5.46808 0.786688 5.55562 0.807083C5.64316 0.827477 5.71805 0.877509 5.76406 0.946325L6.57296 2.18283C6.61716 2.25256 6.62842 2.33486 6.60431 2.41188C6.58019 2.48889 6.52264 2.55441 6.44414 2.59421C6.36564 2.63402 6.27252 2.64491 6.18498 2.62452C6.09744 2.60412 6.02255 2.55409 5.97654 2.48527L5.16764 1.24877ZM2.68162 3.60677C2.60326 3.56603 2.54633 3.49959 2.52324 3.42196C2.50015 3.34432 2.51277 3.26178 2.55835 3.19232C2.60394 3.12286 2.67879 3.07212 2.76658 3.05117C2.85438 3.03021 2.948 3.04074 3.02704 3.08045L4.42809 3.79433C4.50548 3.8355 4.56145 3.90185 4.58395 3.97908C4.60645 4.05632 4.59368 4.13826 4.54839 4.20727C4.5031 4.27628 4.42891 4.32683 4.34181 4.34804C4.2547 4.36924 4.16164 4.35941 4.08266 4.32065L2.68162 3.60677ZM1.86516 6.74595C1.77355 6.74595 1.68569 6.71383 1.62091 6.65666C1.55613 6.59949 1.51974 6.52195 1.51974 6.4411C1.51974 6.36025 1.55613 6.28271 1.62091 6.22554C1.68569 6.16837 1.77355 6.13625 1.86516 6.13625H3.48296C3.67377 6.13625 3.82839 6.27275 3.82839 6.4411C3.82839 6.60945 3.67377 6.74595 3.48296 6.74595H1.86516ZM12.2116 1.02654C12.2571 0.956748 12.3321 0.905749 12.4201 0.884755C12.5082 0.86376 12.6021 0.874489 12.6812 0.914582C12.7603 0.9547 12.8181 1.02089 12.8418 1.0986C12.8656 1.17631 12.8535 1.25918 12.808 1.32899L11.9992 2.56549C11.9537 2.63529 11.8787 2.6863 11.7906 2.70729C11.7026 2.72829 11.6087 2.71755 11.5296 2.67744C11.4505 2.63734 11.3927 2.57114 11.3689 2.49343C11.3451 2.41571 11.3573 2.33284 11.4027 2.26304L12.2116 1.02654ZM14.8821 3.21939C14.9611 3.17967 15.0548 3.16915 15.1426 3.1901C15.2304 3.21106 15.3052 3.2618 15.3508 3.33125C15.3964 3.40071 15.409 3.48325 15.3859 3.56089C15.3628 3.63853 15.3059 3.70496 15.2275 3.74571L13.8264 4.45958C13.6618 4.54376 13.4509 4.49415 13.3555 4.34885C13.2602 4.20355 13.3164 4.01744 13.481 3.93326L14.8821 3.21939ZM10.442 4.98861L8.18605 6.97957L7.41618 6.12455C7.2268 5.91428 6.88017 5.87938 6.64196 6.04647C6.4037 6.21364 6.36411 6.51952 6.55353 6.72979L7.68644 7.98801C7.88233 8.23566 8.28575 8.26954 8.52988 8.05405L11.2226 5.67764C11.4381 5.48738 11.4381 5.17891 11.2226 4.98861C11.0071 4.79839 10.6576 4.79839 10.442 4.98861Z" fill="white"/>
</svg>
