<svg width="24" height="24" viewBox="0 0 24 24" fill="none" xmlns="http://www.w3.org/2000/svg">
<path d="M10.0612 9.0196L11.6388 6.38909L2.23105 3.75494L0.973264 5.85861C0.654888 6.38838 0.826203 7.07594 1.35597 7.39431C1.4418 7.44589 1.53416 7.48573 1.63058 7.51276L8.80055 9.52152C9.03664 9.58753 9.28788 9.57417 9.51564 9.48349C9.74339 9.39281 9.93506 9.22982 10.0612 9.0196Z" fill="#107C10"/>
<path d="M2.74597 15.7922L6.12952 16.7163V12.6836C6.12952 11.78 6.86204 11.0475 7.76564 11.0475H11.856V7.6169L10.7622 9.4404C10.3127 10.1877 9.41964 10.543 8.5796 10.3088L2.44821 8.59321V15.3996C2.4484 15.4885 2.47757 15.5749 2.5313 15.6458C2.58504 15.7166 2.6604 15.7681 2.74597 15.7922ZM12.265 5.71484L20.9857 3.27334L12.4842 0.85182C12.3405 0.811315 12.1883 0.811315 12.0445 0.85182L3.5444 3.27334L12.265 5.71484ZM21.7857 15.7922C21.8709 15.7678 21.9459 15.7162 21.9994 15.6454C22.0528 15.5746 22.0817 15.4883 22.0818 15.3996V8.59321L15.9504 10.3112C15.7812 10.3588 15.6062 10.3829 15.4305 10.3827C15.0957 10.3827 14.7667 10.296 14.4753 10.1311C14.184 9.96628 13.9402 9.72886 13.7678 9.44193L12.674 7.6168V11.0474H16.7643C17.6679 11.0474 18.4005 11.7799 18.4005 12.6835V16.7162L21.7857 15.7922Z" fill="#107C10"/>
<path d="M14.4724 9.01962C14.5986 9.2297 14.7903 9.39256 15.0181 9.48322C15.2458 9.57387 15.4969 9.58732 15.733 9.52149L22.903 7.51273C23.4981 7.34577 23.8452 6.728 23.6783 6.13291C23.6513 6.0369 23.6117 5.94491 23.5604 5.8594L22.3034 3.75491L12.8956 6.38911L14.4724 9.01962ZM17.5855 22.9096V12.6838C17.5855 12.2319 17.2193 11.8657 16.7675 11.8657H7.76871C7.31689 11.8657 6.95063 12.2319 6.95063 12.6838V22.9096C6.95063 23.3614 7.31689 23.7277 7.76871 23.7277H16.7675C17.2193 23.7277 17.5855 23.3614 17.5855 22.9096ZM10.5121 21.1536L9.285 22.3807C9.20829 22.4574 9.10427 22.5005 8.99582 22.5005C8.88736 22.5005 8.78334 22.4574 8.70663 22.3807L8.29761 21.9717C8.22367 21.8944 8.18292 21.7913 8.18409 21.6844C8.18527 21.5774 8.22826 21.4752 8.30388 21.3996C8.3795 21.324 8.48172 21.281 8.58865 21.2798C8.69559 21.2786 8.79872 21.3194 8.87598 21.3933L8.99582 21.5132L9.93373 20.5752C10.011 20.5013 10.1141 20.4606 10.2211 20.4617C10.328 20.4629 10.4302 20.5059 10.5058 20.5815C10.5815 20.6571 10.6244 20.7594 10.6256 20.8663C10.6268 20.9732 10.586 21.0764 10.5121 21.1536ZM10.5121 18.6994L9.285 19.9265C9.20829 20.0032 9.10427 20.0463 8.99582 20.0463C8.88736 20.0463 8.78334 20.0032 8.70663 19.9265L8.29761 19.5175C8.22367 19.4402 8.18292 19.3371 8.18409 19.2302C8.18527 19.1232 8.22826 19.021 8.30388 18.9454C8.3795 18.8698 8.48172 18.8268 8.58865 18.8256C8.69559 18.8244 8.79872 18.8652 8.87598 18.9391L8.99582 19.059L9.93373 18.121C10.011 18.0471 10.1141 18.0063 10.2211 18.0075C10.328 18.0087 10.4302 18.0517 10.5058 18.1273C10.5815 18.2029 10.6244 18.3051 10.6256 18.4121C10.6268 18.519 10.586 18.6222 10.5121 18.6994ZM10.5121 16.2452L9.285 17.4723C9.20829 17.549 9.10427 17.592 8.99582 17.592C8.88736 17.592 8.78334 17.549 8.70663 17.4723L8.29761 17.0633C8.22367 16.986 8.18292 16.8829 8.18409 16.776C8.18527 16.669 8.22826 16.5668 8.30388 16.4912C8.3795 16.4156 8.48172 16.3726 8.58865 16.3714C8.69559 16.3702 8.79872 16.411 8.87598 16.4849L8.99582 16.6048L9.93373 15.6668C10.011 15.5929 10.1141 15.5521 10.2211 15.5533C10.328 15.5545 10.4302 15.5975 10.5058 15.6731C10.5815 15.7487 10.6244 15.8509 10.6256 15.9579C10.6268 16.0648 10.586 16.1679 10.5121 16.2452ZM10.5121 13.791L9.285 15.0181C9.20829 15.0948 9.10427 15.1378 8.99582 15.1378C8.88736 15.1378 8.78334 15.0948 8.70663 15.0181L8.29761 14.6091C8.22367 14.5318 8.18292 14.4287 8.18409 14.3217C8.18527 14.2148 8.22826 14.1126 8.30388 14.037C8.3795 13.9614 8.48172 13.9184 8.58865 13.9172C8.69559 13.916 8.79872 13.9568 8.87598 14.0307L8.99582 14.1505L9.93373 13.2126C10.011 13.1387 10.1141 13.0979 10.2211 13.0991C10.328 13.1003 10.4302 13.1433 10.5058 13.2189C10.5815 13.2945 10.6244 13.3967 10.6256 13.5037C10.6268 13.6106 10.586 13.7137 10.5121 13.791ZM15.9494 22.0915H11.8591C11.7506 22.0915 11.6466 22.0484 11.5699 21.9717C11.4932 21.895 11.4501 21.791 11.4501 21.6825C11.4501 21.574 11.4932 21.47 11.5699 21.3933C11.6466 21.3166 11.7506 21.2735 11.8591 21.2735H15.9494C16.0579 21.2735 16.1619 21.3166 16.2386 21.3933C16.3153 21.47 16.3584 21.574 16.3584 21.6825C16.3584 21.791 16.3153 21.895 16.2386 21.9717C16.1619 22.0484 16.0579 22.0915 15.9494 22.0915ZM15.9494 19.6373H11.8591C11.7506 19.6373 11.6466 19.5942 11.5699 19.5175C11.4932 19.4408 11.4501 19.3368 11.4501 19.2283C11.4501 19.1198 11.4932 19.0158 11.5699 18.9391C11.6466 18.8624 11.7506 18.8193 11.8591 18.8193H15.9494C16.0579 18.8193 16.1619 18.8624 16.2386 18.9391C16.3153 19.0158 16.3584 19.1198 16.3584 19.2283C16.3584 19.3368 16.3153 19.4408 16.2386 19.5175C16.1619 19.5942 16.0579 19.6373 15.9494 19.6373ZM15.9494 17.1831H11.8591C11.7506 17.1831 11.6466 17.14 11.5699 17.0633C11.4932 16.9866 11.4501 16.8826 11.4501 16.7741C11.4501 16.6656 11.4932 16.5616 11.5699 16.4849C11.6466 16.4082 11.7506 16.3651 11.8591 16.3651H15.9494C16.0579 16.3651 16.1619 16.4082 16.2386 16.4849C16.3153 16.5616 16.3584 16.6656 16.3584 16.7741C16.3584 16.8826 16.3153 16.9866 16.2386 17.0633C16.1619 17.14 16.0579 17.1831 15.9494 17.1831ZM15.9494 14.7289H11.8591C11.7506 14.7289 11.6466 14.6858 11.5699 14.6091C11.4932 14.5324 11.4501 14.4284 11.4501 14.3199C11.4501 14.2114 11.4932 14.1074 11.5699 14.0307C11.6466 13.954 11.7506 13.9109 11.8591 13.9109H15.9494C16.0579 13.9109 16.1619 13.954 16.2386 14.0307C16.3153 14.1074 16.3584 14.2114 16.3584 14.3199C16.3584 14.4284 16.3153 14.5324 16.2386 14.6091C16.1619 14.6858 16.0579 14.7289 15.9494 14.7289Z" fill="#107C10"/>
</svg>
