<svg width="19" height="19" viewBox="0 0 19 19" fill="none" xmlns="http://www.w3.org/2000/svg">
<path fill-rule="evenodd" clip-rule="evenodd" d="M12.8524 5.11171C13.2252 5.21578 13.5359 5.46335 13.7271 5.80883C14.0961 6.47548 13.9172 7.3177 13.3377 7.76524L11.9076 5.18235C12.2037 5.04839 12.5334 5.02255 12.8524 5.11167V5.11171ZM3.93777 14.8664L5.93342 13.6648L3.30429 8.9219L1.31149 10.1221C0.707016 10.4861 0.273689 11.0772 0.0916586 11.7862C-0.0907678 12.4955 0.00101928 13.2334 0.35 13.8636C0.836167 14.7414 1.72075 15.2328 2.62916 15.2328C3.07432 15.2328 3.52522 15.1148 3.93777 14.8664ZM8.10116 17.5872L6.42529 14.5601L4.86107 15.502L6.53655 18.5293C6.78594 18.9791 7.33928 19.1337 7.7707 18.874C7.97811 18.749 8.12693 18.5456 8.1899 18.3017C8.25248 18.0575 8.22101 17.8039 8.10116 17.5873V17.5872ZM14.3331 11.6276L9.19833 2.35214C9.09146 2.1587 8.91573 2.05265 8.70318 2.05265C8.69918 2.05265 8.69499 2.05285 8.69099 2.05285C8.4729 2.05702 8.29641 2.17005 8.19414 2.37125C8.01365 2.72648 7.83961 3.10557 7.65549 3.50699C6.88062 5.19494 6.00941 7.09247 4.15305 8.39056L6.79857 13.1641C8.80261 12.138 10.8133 12.2997 12.6014 12.4437C13.0275 12.4782 13.4295 12.5104 13.8151 12.5251C14.0336 12.5339 14.2152 12.4308 14.3276 12.2358C14.4404 12.0407 14.4421 11.8246 14.3332 11.6276L14.3331 11.6276ZM13.0423 2.10379C12.9058 2.35057 12.9869 2.66617 13.2235 2.80867C13.2985 2.85409 13.3836 2.87799 13.4703 2.87794C13.6412 2.87794 13.8078 2.78539 13.8992 2.61985L14.9214 0.774081C15.0578 0.527301 14.9767 0.211705 14.7401 0.0692023C14.5033 -0.0732595 14.2009 0.0112847 14.0644 0.258064L13.0423 2.10379ZM19 7.7635C19 7.47874 18.7787 7.24749 18.5039 7.24749L16.461 7.24769C16.1879 7.24769 15.9662 7.47874 15.9662 7.76371C15.9662 8.04867 16.1879 8.27972 16.461 8.27972L18.5039 8.27952C18.7787 8.27952 19 8.04867 19 7.7635ZM17.817 3.34599C17.6796 3.09921 17.3781 3.01466 17.1415 3.15713L15.3285 4.24848C15.0917 4.39119 15.0106 4.70658 15.1472 4.95357C15.1797 5.01228 15.223 5.06373 15.2745 5.105C15.3261 5.14627 15.385 5.17654 15.4477 5.19408C15.5105 5.21161 15.576 5.21608 15.6404 5.20722C15.7049 5.19836 15.767 5.17634 15.8233 5.14243L17.6357 4.05087C17.8724 3.90836 17.9544 3.59277 17.817 3.34599Z" fill="white"/>
</svg>
