<svg width="19" height="19" viewBox="0 0 19 19" fill="none" xmlns="http://www.w3.org/2000/svg">
<path d="M8.31011 19C8.9659 19 9.49753 18.4683 9.49753 17.8125C9.49753 17.1567 8.9659 16.625 8.31011 16.625C7.65431 16.625 7.12268 17.1567 7.12268 17.8125C7.12268 18.4683 7.65431 19 8.31011 19Z" fill="white"/>
<path d="M14.643 19C15.2988 19 15.8304 18.4683 15.8304 17.8125C15.8304 17.1567 15.2988 16.625 14.643 16.625C13.9872 16.625 13.4556 17.1567 13.4556 17.8125C13.4556 18.4683 13.9872 19 14.643 19Z" fill="white"/>
<path d="M18.997 5.14583C18.997 7.98317 16.6886 10.2917 13.8515 10.2917C11.0143 10.2917 8.70596 7.98317 8.70596 5.14583C8.70596 2.3085 11.0143 0 13.8515 0C16.6886 0 18.997 2.3085 18.997 5.14583ZM16.3514 2.76925C16.1933 2.6312 15.9869 2.56151 15.7775 2.57546C15.5681 2.58941 15.3728 2.68587 15.2344 2.84367L13.0211 5.37383L12.0363 4.389C11.8879 4.24056 11.6865 4.15716 11.4766 4.15716C11.2667 4.15716 11.0654 4.24056 10.9169 4.389C10.7685 4.53744 10.6851 4.73878 10.6851 4.94871C10.6851 5.15864 10.7685 5.35997 10.9169 5.50842L12.5002 7.09175C12.5768 7.16834 12.6683 7.2284 12.769 7.2682C12.8698 7.308 12.9776 7.32669 13.0859 7.32313C13.1942 7.31957 13.3006 7.29382 13.3985 7.24749C13.4964 7.20115 13.5837 7.13521 13.6552 7.05375L16.4258 3.88708C16.4944 3.80883 16.5469 3.71782 16.5802 3.61927C16.6136 3.52072 16.6272 3.41656 16.6203 3.31274C16.6134 3.20892 16.5861 3.10748 16.54 3.01423C16.4938 2.92097 16.4297 2.83772 16.3514 2.76925Z" fill="white"/>
<path d="M7.12574 5.14578C7.12574 5.01199 7.13762 4.88137 7.14553 4.74995H5.03508L4.73427 3.3202C4.62976 2.834 4.36276 2.39791 3.97727 2.08377C3.59177 1.76963 3.11078 1.59618 2.61353 1.59199L0.597276 1.58328H0.594902C0.437439 1.58297 0.286301 1.64522 0.174735 1.75635C0.0631699 1.86748 0.000316114 2.01837 1.18912e-06 2.17585C-0.000313736 2.33332 0.0619359 2.48447 0.173056 2.59604C0.284176 2.70761 0.435064 2.77047 0.592527 2.77078L2.60798 2.77949C3.07108 2.78108 3.47639 3.11199 3.57217 3.56482L3.97194 5.46562L5.40477 12.2708H4.9488C3.9664 12.2708 3.16766 13.0696 3.16766 14.052C3.16766 15.0345 3.9664 15.8333 4.9488 15.8333H16.8231C16.9805 15.8333 17.1315 15.7707 17.2429 15.6594C17.3542 15.548 17.4168 15.397 17.4168 15.2395C17.4168 15.0821 17.3542 14.931 17.2429 14.8197C17.1315 14.7083 16.9805 14.6458 16.8231 14.6458H4.9488C4.79133 14.6458 4.64032 14.5832 4.52898 14.4719C4.41763 14.3605 4.35508 14.2095 4.35508 14.052C4.35508 13.8946 4.41763 13.7435 4.52898 13.6322C4.64032 13.5208 4.79133 13.4583 4.9488 13.4583H16.8231C16.9593 13.4581 17.0914 13.4112 17.1971 13.3253C17.3029 13.2394 17.376 13.1198 17.4041 12.9864L17.9305 10.4872C16.7621 11.3866 15.329 11.8746 13.8545 11.875C10.1442 11.875 7.12574 8.85632 7.12574 5.14578Z" fill="white"/>
</svg>
