<svg width="18" height="19" viewBox="0 0 18 19" fill="none" xmlns="http://www.w3.org/2000/svg">
<path d="M7.60986 11.4852H10.3771V6.41826H7.60986V11.4852ZM8.30166 7.09386H9.68528V7.76945H8.30166V7.09386ZM8.30166 8.44505H9.68528V9.12064H8.30166V8.44505ZM8.30166 9.79623H9.68528V10.4718H8.30166V9.79623ZM7.60986 4.72928H10.3771V5.74267H7.60986V4.72928ZM11.0689 11.4852H13.4902V6.41826H11.0689V11.4852ZM11.7607 7.09386H12.7984V7.76945H11.7607V7.09386ZM11.7607 8.44505H12.7984V9.12064H11.7607V8.44505ZM11.7607 9.79623H12.7984V10.4718H11.7607V9.79623ZM1.72949 4.72928H6.91805V5.74267H1.72949V4.72928ZM1.72949 11.4852H6.91805V6.41826H1.72949V11.4852ZM2.4213 7.09386H5.53443V7.76945H2.4213V7.09386ZM2.4213 8.44505H4.49672V9.12064H2.4213V8.44505ZM2.4213 9.79623H4.49672V10.4718H2.4213V9.79623Z" fill="white"/>
<path d="M1.03771 17.5654C1.31283 17.5651 1.5766 17.4583 1.77114 17.2683C1.96568 17.0783 2.07511 16.8207 2.07542 16.5521V15.8765H15.2198V0.337797C15.2197 0.248242 15.1832 0.162387 15.1183 0.0990619C15.0535 0.0357369 14.9656 0.000111734 14.8739 0H0.345904C0.2542 0.000111734 0.166284 0.0357369 0.101439 0.0990619C0.0365945 0.162387 0.000114416 0.248242 0 0.337797V16.5521C0.000308993 16.8207 0.109738 17.0783 0.30428 17.2683C0.498822 17.4583 0.762588 17.5651 1.03771 17.5654ZM14.1821 14.8631H10.3771V14.1875H14.1821V14.8631ZM14.1821 13.5119H8.6476V12.8363H14.1821V13.5119ZM12.1066 1.01339H14.1821V1.68899H12.1066V1.01339ZM10.723 1.01339H11.4148V1.68899H10.723V1.01339ZM10.723 2.36458H14.1821V3.04017H10.723V2.36458ZM1.03771 1.01339H3.80494V1.68899H1.03771V1.01339ZM1.03771 2.36458H4.49675V3.04017H1.03771V2.36458ZM1.03771 4.05357H14.1821V12.1607H1.03771V4.05357ZM1.03771 12.8363H4.49675V13.5119H1.03771V12.8363Z" fill="white"/>
<path d="M2.76723 16.5522C2.76764 16.9178 2.64591 17.2736 2.42051 17.5656H16.2575C16.5326 17.5653 16.7964 17.4584 16.9909 17.2684C17.1855 17.0784 17.2949 16.8209 17.2952 16.5522H2.76723ZM0 17.9024V18.579C0.000114416 18.6685 0.0365945 18.7544 0.101439 18.8177C0.166284 18.881 0.2542 18.9166 0.345904 18.9168H14.8739C14.9656 18.9166 15.0535 18.881 15.1183 18.8177C15.1832 18.7544 15.2197 18.6685 15.2198 18.579V18.2412H1.03771C0.663279 18.2415 0.298943 18.1226 0 17.9024ZM11.0689 4.72928H13.4902V5.74267H11.0689V4.72928Z" fill="white"/>
</svg>
