<svg width="18" height="18" viewBox="0 0 18 18" fill="none" xmlns="http://www.w3.org/2000/svg">
<path d="M8.5814 9.20672C11.1245 9.20672 13.186 7.14573 13.186 4.60336C13.186 2.06099 11.1245 0 8.5814 0C6.03832 0 3.97675 2.06099 3.97675 4.60336C3.97675 7.14573 6.03832 9.20672 8.5814 9.20672Z" fill="white"/>
<path fill-rule="evenodd" clip-rule="evenodd" d="M13.6047 10.6246C12.8286 10.6471 12.0919 10.9711 11.551 11.5278C11.01 12.0846 10.7074 12.8301 10.7074 13.6063C10.7074 14.3824 11.01 15.128 11.551 15.6848C12.0919 16.2415 12.8286 16.5655 13.6047 16.588C15.2506 16.588 16.5876 15.2514 16.5876 13.6059C16.5876 11.9604 15.2506 10.6246 13.6047 10.6246ZM13.6047 11.88C14.5574 11.88 15.3318 12.6534 15.3318 13.6059C15.3318 14.5584 14.5574 15.3326 13.6047 15.3326C12.6519 15.3326 11.8775 14.5584 11.8775 13.6059C11.8775 12.6534 12.6519 11.88 13.6047 11.88Z" fill="white"/>
<path fill-rule="evenodd" clip-rule="evenodd" d="M14.2325 11.2514V9.83946C14.2325 9.67298 14.1663 9.51331 14.0486 9.39559C13.9308 9.27787 13.7711 9.21173 13.6046 9.21173C13.438 9.21173 13.2783 9.27787 13.1606 9.39559C13.0428 9.51331 12.9767 9.67298 12.9767 9.83946V11.2523C12.9768 11.4188 13.043 11.5784 13.1609 11.696C13.2787 11.8137 13.4385 11.8797 13.605 11.8796C13.7715 11.8795 13.9312 11.8132 14.0489 11.6954C14.1665 11.5776 14.2326 11.4179 14.2325 11.2514ZM15.7135 12.3855L16.7123 11.3862C16.83 11.2685 16.8961 11.109 16.8961 10.9426C16.8961 10.7762 16.83 10.6166 16.7123 10.499C16.5946 10.3813 16.435 10.3153 16.2686 10.3153C16.1021 10.3153 15.9425 10.3813 15.8249 10.499L14.8252 11.4975C14.7078 11.6155 14.6419 11.7751 14.6419 11.9415C14.6419 12.1079 14.7078 12.2676 14.8252 12.3855C14.9432 12.5029 15.1029 12.5688 15.2694 12.5688C15.4358 12.5688 15.5955 12.5029 15.7135 12.3855ZM15.9588 14.2336H17.372C17.5385 14.2336 17.6983 14.1674 17.816 14.0497C17.9338 13.932 17.9999 13.7723 17.9999 13.6058C17.9999 13.4394 17.9338 13.2797 17.816 13.162C17.6983 13.0443 17.5385 12.9781 17.372 12.9781H15.9588C15.7923 12.9781 15.6326 13.0443 15.5148 13.162C15.3971 13.2797 15.3309 13.4394 15.3309 13.6058C15.3309 13.7723 15.3971 13.932 15.5148 14.0497C15.6326 14.1674 15.7923 14.2336 15.9588 14.2336ZM14.8252 15.7142L15.8249 16.7127C15.8831 16.7709 15.9523 16.8172 16.0284 16.8487C16.1046 16.8802 16.1862 16.8964 16.2686 16.8964C16.351 16.8964 16.4326 16.8802 16.5087 16.8487C16.5848 16.8172 16.654 16.7709 16.7123 16.7127C16.7706 16.6544 16.8168 16.5853 16.8483 16.5092C16.8799 16.4331 16.8961 16.3515 16.8961 16.2691C16.8961 16.1867 16.8799 16.1051 16.8483 16.029C16.8168 15.9529 16.7706 15.8838 16.7123 15.8255L15.7135 14.8262C15.5955 14.7088 15.4358 14.6428 15.2694 14.6428C15.1029 14.6428 14.9432 14.7088 14.8252 14.8262C14.7078 14.9441 14.6419 15.1038 14.6419 15.2702C14.6419 15.4366 14.7078 15.5962 14.8252 15.7142ZM12.9767 15.9594V17.3722C12.9767 17.5387 13.0428 17.6984 13.1606 17.8161C13.2783 17.9338 13.438 18 13.6046 18C13.7711 18 13.9308 17.9338 14.0486 17.8161C14.1663 17.6984 14.2325 17.5387 14.2325 17.3722V15.9594C14.2325 15.7929 14.1663 15.6333 14.0486 15.5155C13.9308 15.3978 13.7711 15.3317 13.6046 15.3317C13.438 15.3317 13.2783 15.3978 13.1606 15.5155C13.0428 15.6333 12.9767 15.7929 12.9767 15.9594ZM11.4956 14.8262L10.4969 15.8255C10.4386 15.8838 10.3924 15.9529 10.3608 16.029C10.3293 16.1051 10.3131 16.1867 10.3131 16.2691C10.3131 16.3515 10.3293 16.4331 10.3608 16.5092C10.3924 16.5853 10.4386 16.6544 10.4969 16.7127C10.5551 16.7709 10.6243 16.8172 10.7004 16.8487C10.7766 16.8802 10.8582 16.8964 10.9406 16.8964C11.023 16.8964 11.1046 16.8802 11.1807 16.8487C11.2569 16.8172 11.326 16.7709 11.3843 16.7127L12.3839 15.7142C12.5014 15.5962 12.5673 15.4366 12.5673 15.2702C12.5673 15.1038 12.5014 14.9441 12.3839 14.8262C12.2659 14.7088 12.1063 14.6428 11.9398 14.6428C11.7733 14.6428 11.6136 14.7088 11.4956 14.8262ZM11.2495 12.9781H9.83714C9.6706 12.9781 9.51089 13.0443 9.39314 13.162C9.27538 13.2797 9.20923 13.4394 9.20923 13.6058C9.20923 13.7723 9.27538 13.932 9.39314 14.0497C9.51089 14.1674 9.6706 14.2336 9.83714 14.2336H11.2495C11.416 14.2336 11.5757 14.1674 11.6935 14.0497C11.8113 13.932 11.8774 13.7723 11.8774 13.6058C11.8774 13.4394 11.8113 13.2797 11.6935 13.162C11.5757 13.0443 11.416 12.9781 11.2495 12.9781ZM12.3839 11.4975L11.3843 10.499C11.326 10.4407 11.2569 10.3945 11.1807 10.363C11.1046 10.3315 11.023 10.3153 10.9406 10.3153C10.8582 10.3153 10.7766 10.3315 10.7004 10.363C10.6243 10.3945 10.5551 10.4407 10.4969 10.499C10.4386 10.5573 10.3924 10.6264 10.3608 10.7025C10.3293 10.7786 10.3131 10.8602 10.3131 10.9426C10.3131 11.025 10.3293 11.1066 10.3608 11.1827C10.3924 11.2588 10.4386 11.3279 10.4969 11.3862L11.4956 12.3855C11.6136 12.5029 11.7733 12.5688 11.9398 12.5688C12.1063 12.5688 12.2659 12.5029 12.3839 12.3855C12.5014 12.2676 12.5673 12.1079 12.5673 11.9415C12.5673 11.7751 12.5014 11.6155 12.3839 11.4975Z" fill="white"/>
<path fill-rule="evenodd" clip-rule="evenodd" d="M9.78363 17.168C9.56487 16.8861 9.45651 16.534 9.47886 16.1779C9.50121 15.8218 9.65273 15.4861 9.90503 15.2337L10.0674 15.0705H9.83721C9.44864 15.0705 9.07598 14.9162 8.80122 14.6415C8.52645 14.3668 8.3721 13.9943 8.3721 13.6058C8.3721 13.2174 8.52645 12.8448 8.80122 12.5701C9.07598 12.2954 9.44864 12.1411 9.83721 12.1411H10.0674L9.90503 11.9779C9.64209 11.7149 9.48905 11.3618 9.47692 10.9902C9.4648 10.6186 9.5945 10.2563 9.83972 9.97671C9.42106 9.94431 9.00131 9.92812 8.5814 9.92816C5.80019 9.92816 3.33796 10.6237 1.80921 11.6657C0.642979 12.4608 2.22419e-06 13.4711 2.22419e-06 14.5315V15.7451C-0.000328648 15.9321 0.0362591 16.1173 0.107667 16.29C0.179075 16.4628 0.283899 16.6198 0.416126 16.752C0.548354 16.8842 0.705384 16.989 0.87821 17.0604C1.05104 17.1317 1.23626 17.1683 1.42326 17.168H9.78363Z" fill="white"/>
</svg>
