<svg width="18" height="20" viewBox="0 0 18 20" fill="none" xmlns="http://www.w3.org/2000/svg">
<path d="M17.7188 15.2514H0.281281C0.140656 15.2514 3.05176e-05 15.3795 3.05176e-05 15.5718V19.0642C3.05176e-05 19.2565 0.140656 19.3846 0.281281 19.3846H17.7188C17.8875 19.3846 18 19.2565 18 19.0642V15.5718C18 15.4116 17.8875 15.2514 17.7188 15.2514ZM9.00003 17.9748C8.69066 17.9748 8.43753 17.6865 8.43753 17.334C8.43753 16.9816 8.69066 16.6932 9.00003 16.6932C9.30941 16.6932 9.56253 16.9816 9.56253 17.334C9.56253 17.6865 9.30941 17.9748 9.00003 17.9748ZM11.0532 2.88366H13.1344V4.90223H13.6969V2.88366H15.7782C15.9188 2.88366 16.0594 2.7555 16.0594 2.56326V0.320407C16.0594 0.160203 15.9188 0 15.7782 0H11.0532C10.8844 0 10.7719 0.160203 10.7719 0.320407V2.56326C10.7719 2.7555 10.9125 2.88366 11.0532 2.88366ZM16.7907 9.00343C16.6782 7.01691 15.5813 5.54304 14.2875 5.54304H8.77503V8.77915C9.19691 8.84323 9.53441 9.22772 9.53441 9.74037C9.53441 10.2851 9.14066 10.7016 8.69066 10.7016H3.03753C2.58753 10.7016 2.19378 10.2851 2.19378 9.74037C2.19378 9.25976 2.53128 8.84323 2.95316 8.77915V5.73528C1.99691 6.21589 1.32191 7.46548 1.23753 9.00343L0.871906 14.6106H17.1563L16.7907 9.00343ZM3.96566 13.6173H3.03753C2.89691 13.6173 2.75628 13.4571 2.75628 13.2969C2.75628 13.1367 2.89691 12.9765 3.03753 12.9765H3.96566C4.13441 12.9765 4.24691 13.1367 4.24691 13.2969C4.24691 13.4571 4.10628 13.6173 3.96566 13.6173ZM3.96566 12.0793H3.03753C2.89691 12.0793 2.75628 11.9191 2.75628 11.7589C2.75628 11.5987 2.89691 11.4385 3.03753 11.4385H3.96566C4.13441 11.4385 4.24691 11.5987 4.24691 11.7589C4.24691 11.9191 4.10628 12.0793 3.96566 12.0793ZM6.66566 13.6173H5.73753C5.59691 13.6173 5.45628 13.4571 5.45628 13.2969C5.45628 13.1367 5.59691 12.9765 5.73753 12.9765H6.66566C6.80628 12.9765 6.94691 13.1367 6.94691 13.2969C6.94691 13.4571 6.80628 13.6173 6.66566 13.6173ZM6.66566 12.0793H5.73753C5.59691 12.0793 5.45628 11.9191 5.45628 11.7589C5.45628 11.5987 5.59691 11.4385 5.73753 11.4385H6.66566C6.80628 11.4385 6.94691 11.5987 6.94691 11.7589C6.94691 11.9191 6.80628 12.0793 6.66566 12.0793ZM9.33753 13.6173H8.43753C8.29691 13.6173 8.15628 13.4571 8.15628 13.2969C8.15628 13.1367 8.29691 12.9765 8.43753 12.9765H9.36565C9.53441 12.9765 9.6469 13.1367 9.6469 13.2969C9.6469 13.4571 9.50628 13.6173 9.33753 13.6173ZM9.33753 12.0793H8.43753C8.29691 12.0793 8.15628 11.9191 8.15628 11.7589C8.15628 11.5987 8.29691 11.4385 8.43753 11.4385H9.36565C9.53441 11.4385 9.6469 11.5987 9.6469 11.7589C9.6469 11.9191 9.50628 12.0793 9.33753 12.0793ZM12.0375 13.6173H11.1094C10.9407 13.6173 10.8282 13.4571 10.8282 13.2969C10.8282 13.1367 10.9407 12.9765 11.1094 12.9765H12.0375C12.2063 12.9765 12.3188 13.1367 12.3188 13.2969C12.3188 13.4571 12.2063 13.6173 12.0375 13.6173ZM12.0375 12.0793H11.1094C10.9407 12.0793 10.8282 11.9191 10.8282 11.7589C10.8282 11.5987 10.9407 11.4385 11.1094 11.4385H12.0375C12.2063 11.4385 12.3188 11.5987 12.3188 11.7589C12.3188 11.9191 12.2063 12.0793 12.0375 12.0793ZM14.7375 13.6173H13.8094C13.6407 13.6173 13.5282 13.4571 13.5282 13.2969C13.5282 13.1367 13.6407 12.9765 13.8094 12.9765H14.7375C14.8782 12.9765 15.0188 13.1367 15.0188 13.2969C15.0188 13.4571 14.9063 13.6173 14.7375 13.6173ZM14.7375 12.0793H13.8094C13.6407 12.0793 13.5282 11.9191 13.5282 11.7589C13.5282 11.5987 13.6407 11.4385 13.8094 11.4385H14.7375C14.8782 11.4385 15.0188 11.5987 15.0188 11.7589C15.0188 11.9191 14.9063 12.0793 14.7375 12.0793ZM15.0188 9.70833C15.0188 9.86853 14.8782 10.0287 14.7375 10.0287H10.6313C10.4625 10.0287 10.35 9.86853 10.35 9.70833V7.94609C10.35 7.75385 10.4625 7.62568 10.6313 7.62568H14.7375C14.8782 7.62568 15.0188 7.75385 15.0188 7.94609V9.70833Z" fill="white"/>
<path d="M2.75623 9.70825C2.75623 9.86845 2.89685 10.0287 3.03748 10.0287H8.6906C8.83123 10.0287 8.97185 9.86845 8.97185 9.70825C8.97185 9.54805 8.83123 9.38784 8.6906 9.38784H8.21248V2.94767C8.21248 2.75542 8.09998 2.62726 7.93123 2.62726H3.76873C3.6281 2.62726 3.48748 2.75542 3.48748 2.94767V9.38784H3.00935C2.86873 9.38784 2.75623 9.54805 2.75623 9.70825Z" fill="white"/>
</svg>
