<svg width="17" height="18" viewBox="0 0 17 18" fill="none" xmlns="http://www.w3.org/2000/svg">
<path d="M16.7057 10.9725L15.1011 9.67876C15.1214 9.47925 15.1389 9.24602 15.1389 8.99926C15.1389 8.7525 15.1222 8.51927 15.1011 8.31976L16.7072 7.02527C17.0054 6.78227 17.0869 6.35101 16.897 5.99179L15.2284 3.015C15.0501 2.67901 14.6595 2.5065 14.2631 2.65725L12.3697 3.44099C12.0067 3.17099 11.6263 2.943 11.2328 2.76075L10.9447 0.690012C10.8974 0.297 10.5657 0 10.1737 0H6.82765C6.43557 0 6.10462 0.297 6.05805 0.684L5.76928 2.76226C5.38811 2.93927 5.01353 3.16427 4.63454 3.4425L2.73603 2.65651C2.38029 2.51476 1.95476 2.67374 1.77801 3.00825L0.107191 5.98876C-0.0899225 6.33227 -0.00846516 6.77851 0.296327 7.02752L1.90096 8.32127C1.87549 8.57401 1.86315 8.79377 1.86315 9.00004C1.86315 9.2063 1.87552 9.42602 1.90096 9.67954L0.29486 10.974C-0.00338473 11.2178 -0.0841261 11.649 0.105725 12.0075L1.77439 14.9843C1.95262 15.3195 2.33958 15.4935 2.73964 15.342L4.63307 14.5583C4.99532 14.8275 5.37574 15.0555 5.76928 15.2385L6.05733 17.3085C6.10459 17.703 6.43557 18 6.82836 18H10.1744C10.5665 18 10.8982 17.703 10.9447 17.316L11.2335 15.2385C11.6146 15.0608 11.9885 14.8365 12.3682 14.5575L14.2667 15.3435C14.3576 15.3802 14.4543 15.399 14.5519 15.399C14.8341 15.399 15.0938 15.24 15.2247 14.9925L16.9006 12C17.0869 11.649 17.0054 11.2178 16.7057 10.9725ZM8.50065 12C6.89601 12 5.59106 10.6545 5.59106 9C5.59106 7.34551 6.89601 6.00001 8.50065 6.00001C10.1053 6.00001 11.4102 7.34551 11.4102 9C11.4102 10.6545 10.1053 12 8.50065 12Z" fill="white"/>
</svg>
