<svg width="18" height="18" viewBox="0 0 18 18" fill="none" xmlns="http://www.w3.org/2000/svg">
<path d="M13.2514 9.79711L11.5157 8.85426L9.42857 17.5714H14.1428V11.3014C14.1429 10.9937 14.0602 10.6917 13.9033 10.4271C13.7465 10.1624 13.5213 9.94479 13.2514 9.79711ZM6.42858 2.14285C6.42858 1.71904 6.30291 1.30474 6.06745 0.952347C5.83199 0.599957 5.49732 0.325303 5.10577 0.163116C4.71421 0.000928463 4.28336 -0.0415071 3.86769 0.0411752C3.45201 0.123858 3.07019 0.327944 2.77051 0.627627C2.47083 0.92731 2.26674 1.30913 2.18406 1.7248C2.10138 2.14047 2.14381 2.57133 2.306 2.96288C2.46819 3.35444 2.74284 3.68911 3.09523 3.92457C3.44762 4.16003 3.86192 4.2857 4.28573 4.2857C4.73941 4.28108 5.17961 4.13085 5.54144 3.85713C5.73639 3.45799 5.99882 3.09552 6.31716 2.78571C6.38899 2.5789 6.42662 2.36177 6.42858 2.14285Z" fill="white"/>
<path d="M8.99999 8.57145C10.6568 8.57145 12 7.22831 12 5.57146C12 3.91461 10.6568 2.57147 8.99999 2.57147C7.34314 2.57147 6 3.91461 6 5.57146C6 7.22831 7.34314 8.57145 8.99999 8.57145Z" fill="white"/>
<path d="M15.8571 2.14285C15.8571 1.57453 15.6314 1.02949 15.2295 0.627626C14.8276 0.225764 14.2826 0 13.7143 0C13.146 0 12.6009 0.225764 12.199 0.627626C11.7972 1.02949 11.5714 1.57453 11.5714 2.14285C11.5715 2.36752 11.6092 2.5906 11.6828 2.80285C11.9996 3.10752 12.2619 3.46408 12.4586 3.85713C12.8204 4.13085 13.2606 4.28108 13.7143 4.2857C13.9957 4.2857 14.2743 4.23027 14.5343 4.12259C14.7943 4.0149 15.0305 3.85706 15.2295 3.65807C15.4285 3.45909 15.5863 3.22287 15.694 2.96288C15.8017 2.7029 15.8571 2.42425 15.8571 2.14285ZM5.14287 5.57141C5.14331 5.38046 5.15908 5.18985 5.19001 5.00141C4.89744 5.09388 4.59256 5.14156 4.28573 5.14284C3.673 5.14353 3.07476 4.95657 2.57145 4.60713L1.11431 5.14284C0.785508 5.26569 0.502338 5.4865 0.303063 5.77545C0.103788 6.0644 -0.00198791 6.40755 2.82959e-05 6.75855V12.8571H3.00002V11.3014C3.00072 10.8398 3.12563 10.387 3.36166 9.99034C3.59768 9.59369 3.93612 9.26789 4.34144 9.04712L6.08572 8.0914C5.47915 7.39181 5.14449 6.49735 5.14287 5.57141ZM16.8857 5.14284L15.4285 4.60713C14.9252 4.95657 14.327 5.14353 13.7143 5.14284C13.4074 5.14156 13.1026 5.09388 12.81 5.00141C12.8409 5.18985 12.8567 5.38046 12.8571 5.57141C12.8555 6.49735 12.5208 7.39181 11.9143 8.0914L13.6586 9.04712C14.0639 9.26789 14.4023 9.59369 14.6383 9.99034C14.8744 10.387 14.9993 10.8398 15 11.3014V12.8571H18V6.75855C18.002 6.40755 17.8962 6.0644 17.6969 5.77545C17.4977 5.4865 17.2145 5.26569 16.8857 5.14284ZM9.42857 10.2857V13.92L9 15.72L8.57143 13.92V10.2857C8.57143 10.172 8.61658 10.063 8.69695 9.98264C8.77733 9.90226 8.88634 9.85711 9 9.85711C9.11366 9.85711 9.22267 9.90226 9.30305 9.98264C9.38342 10.063 9.42857 10.172 9.42857 10.2857Z" fill="white"/>
<path d="M9.42859 10.2856V13.9199L9.00002 15.7199L8.57145 13.9199V10.2856C8.57145 10.1719 8.6166 10.0629 8.69697 9.98257C8.77735 9.90219 8.88635 9.85704 9.00002 9.85704C9.11368 9.85704 9.22269 9.90219 9.30306 9.98257C9.38344 10.0629 9.42859 10.1719 9.42859 10.2856ZM4.7486 9.79704C4.4787 9.94472 4.25352 10.1623 4.09668 10.427C3.93983 10.6917 3.85711 10.9937 3.85718 11.3013V17.5713H8.57145L6.48431 8.85419L4.7486 9.79704Z" fill="white"/>
</svg>
