<svg width="18" height="18" viewBox="0 0 18 18" fill="none" xmlns="http://www.w3.org/2000/svg">
<path d="M13.1919 17.6848C13.1951 17.7251 13.1899 17.7656 13.1767 17.8038C13.1634 17.842 13.1424 17.877 13.1149 17.9066C13.0874 17.9362 13.0541 17.9598 13.017 17.9759C12.9799 17.992 12.9399 18.0002 12.8995 18H5.10054C5.06012 18.0002 5.02011 17.992 4.98304 17.9759C4.94596 17.9598 4.91262 17.9362 4.88514 17.9066C4.85765 17.877 4.83661 17.842 4.82335 17.8038C4.81008 17.7656 4.80489 17.7251 4.80809 17.6848C4.9706 15.5185 6.79399 13.7963 9.00003 13.7963C11.2061 13.7963 13.0294 15.5185 13.1919 17.6848ZM6.72807 11.3049C6.72807 12.5597 7.74529 13.5769 9.00003 13.5769C10.2548 13.5769 11.272 12.5597 11.272 11.3049C11.272 10.0501 10.2548 9.03294 9.00003 9.03294C7.74525 9.03294 6.72807 10.0501 6.72807 11.3049ZM6.12927 14.1761C5.47668 13.5981 4.62001 13.246 3.68499 13.246C1.74614 13.246 0.143637 14.7596 0.000803792 16.6636C-0.00200457 16.699 0.00256453 16.7346 0.0142222 16.7681C0.0258798 16.8017 0.0443722 16.8324 0.06853 16.8585C0.0926878 16.8845 0.121985 16.9052 0.154569 16.9194C0.187153 16.9335 0.222315 16.9407 0.257831 16.9405H4.33219C4.58809 15.8163 5.2406 14.8451 6.12927 14.1761ZM14.3151 13.246C13.3801 13.246 12.5234 13.5981 11.8708 14.1761C12.7594 14.8451 13.412 15.8163 13.6678 16.9405H17.7422C17.7777 16.9407 17.8129 16.9335 17.8455 16.9194C17.878 16.9052 17.9073 16.8845 17.9315 16.8585C17.9557 16.8324 17.9741 16.8017 17.9858 16.7681C17.9974 16.7346 18.002 16.699 17.9992 16.6636C17.8564 14.7596 16.2539 13.246 14.3151 13.246ZM7.50334e-05 5.43319C7.50334e-05 4.81733 0.499299 4.31807 1.1152 4.31807C1.43151 4.31807 1.71699 4.44979 1.91994 4.66131L4.5608 3.21504V0.484506C4.5608 0.21804 4.77883 0 5.0453 0H7.56452V1.90133C7.56452 2.08235 7.7744 2.18168 7.91443 2.0669L8.86427 1.28817C8.90242 1.25648 8.95045 1.23914 9.00003 1.23914C9.04962 1.23914 9.09765 1.25648 9.1358 1.28817L10.0856 2.0669C10.2256 2.18168 10.4355 2.08235 10.4355 1.90133V0H12.9548C13.2212 0 13.4393 0.21804 13.4393 0.484506V3.21508L16.0801 4.66134C16.2831 4.44982 16.5686 4.3181 16.8849 4.3181C17.5007 4.3181 18 4.81737 18 5.43323C18 6.04909 17.5008 6.54836 16.8849 6.54836C16.831 6.54836 16.778 6.54446 16.7262 6.53706L15.4779 9.43309C15.9828 9.79542 16.3118 10.3875 16.3118 11.0564C16.3118 12.1593 15.4178 13.0532 14.315 13.0532C13.2123 13.0532 12.3182 12.1592 12.3182 11.0564C12.3182 9.95367 13.2122 9.05965 14.315 9.05965C14.534 9.05942 14.7515 9.09526 14.9588 9.16572L16.1913 6.30638C15.9345 6.10211 15.7698 5.78689 15.7698 5.43319C15.7698 5.34279 15.7806 5.25487 15.8009 5.1707L13.4392 3.87736V7.19282C13.4392 7.45929 13.2212 7.67733 12.9547 7.67733H5.0453C4.77883 7.67733 4.5608 7.45932 4.5608 7.19282V3.87736L2.19913 5.1707C2.21946 5.25491 2.23028 5.34279 2.23028 5.43319C2.23028 5.78689 2.06558 6.10211 1.8087 6.30638L3.04126 9.16572C3.24855 9.09526 3.46602 9.05942 3.68496 9.05965C4.78776 9.05965 5.68175 9.95363 5.68175 11.0564C5.68175 12.1593 4.78776 13.0532 3.68496 13.0532C2.58219 13.0532 1.68821 12.1592 1.68821 11.0564C1.68821 10.3875 2.0172 9.79546 2.52218 9.43309L1.27381 6.53706C1.22199 6.54446 1.16901 6.54836 1.11516 6.54836C0.499299 6.54832 7.50334e-05 6.04909 7.50334e-05 5.43319ZM6.01438 6.13038C6.01445 6.15513 6.02431 6.17885 6.04181 6.19634C6.05931 6.21384 6.08302 6.2237 6.10777 6.22377H8.05307C8.07782 6.2237 8.10152 6.21383 8.11902 6.19633C8.13652 6.17884 8.14638 6.15513 8.14646 6.13038V5.1108C8.14638 5.08605 8.13652 5.06234 8.11902 5.04485C8.10152 5.02735 8.07782 5.01748 8.05307 5.01741H6.10777C6.08302 5.01748 6.05931 5.02735 6.04182 5.04485C6.02432 5.06234 6.01446 5.08605 6.01438 5.1108V6.13038Z" fill="white"/>
</svg>
