<svg width="21" height="21" viewBox="0 0 21 21" fill="none" xmlns="http://www.w3.org/2000/svg">
<g clip-path="url(#clip0_630_579)">
<path d="M14.4575 11.749C15.8447 11.749 16.973 10.6207 16.973 9.23355C16.973 7.84635 15.8447 6.71804 14.4575 6.71804C13.0703 6.71804 11.942 7.84635 11.942 9.23355C11.942 10.6207 13.0703 11.749 14.4575 11.749ZM14.4575 7.37511C15.482 7.37511 16.3159 8.20898 16.3159 9.23355C16.3159 10.2581 15.482 11.092 14.4575 11.092C13.4329 11.092 12.599 10.2581 12.599 9.23355C12.599 8.20898 13.4325 7.37511 14.4575 7.37511ZM13.6523 8.75693C13.6523 8.43 13.8484 8.14867 14.129 8.02275V7.97355C14.129 7.7922 14.2758 7.64498 14.4575 7.64498C14.6392 7.64498 14.786 7.79183 14.786 7.97355V8.02313C14.9816 8.11133 15.14 8.27625 15.2155 8.48708C15.2765 8.6577 15.188 8.84595 15.017 8.90707C14.8463 8.96812 14.6581 8.87955 14.597 8.70855C14.5793 8.6589 14.5289 8.60888 14.4575 8.60888C14.3771 8.60888 14.3094 8.67698 14.3094 8.75693C14.3094 8.83853 14.3759 8.90497 14.4575 8.90497C14.4689 8.90497 14.48 8.90542 14.4911 8.90662C14.9193 8.92425 15.2626 9.27743 15.2626 9.7101C15.2626 10.037 15.0665 10.3184 14.786 10.4443V10.4935C14.786 10.6748 14.6392 10.8221 14.4575 10.8221C14.2758 10.8221 14.129 10.6752 14.129 10.4935V10.4439C13.9333 10.3557 13.775 10.1908 13.6995 9.98002C13.6384 9.8094 13.727 9.62115 13.898 9.56003C14.069 9.4989 14.2569 9.58748 14.318 9.75855C14.3357 9.80813 14.3857 9.85823 14.4575 9.85823C14.5379 9.85823 14.6056 9.79013 14.6056 9.7101C14.6056 9.63015 14.5375 9.56205 14.4575 9.56205C14.446 9.56205 14.435 9.56168 14.4239 9.5604C13.9957 9.5424 13.6523 9.18968 13.6523 8.75693ZM8.05779 9.12608V12.4434C8.05779 12.6247 8.20509 12.772 8.38637 12.772H20.5278C20.7091 12.772 20.8563 12.6251 20.8563 12.4434V6.02364C20.8563 5.84235 20.7095 5.69511 20.5278 5.69511H10.9777C10.6508 4.5721 9.61314 3.74891 8.38637 3.74891C6.8979 3.74891 5.68712 4.9597 5.68712 6.44815C5.68712 7.82505 6.72399 8.96363 8.05779 9.12608ZM8.71449 10.5484C9.51309 10.6863 10.1443 11.3171 10.2821 12.1149H8.71449V10.5484ZM18.6329 12.1153C18.7707 11.3175 19.4015 10.6867 20.1992 10.5489V12.1153H18.6329ZM20.1992 7.91857C19.4015 7.78072 18.7707 7.14993 18.6329 6.35218H20.1992V7.91857ZM17.9688 6.35176C18.1169 7.51252 19.0385 8.43412 20.1992 8.58217V9.88448C19.0385 10.0325 18.1169 10.9541 17.9688 12.1149H10.9461C10.7981 10.9541 9.87564 10.0325 8.71449 9.88448V9.12608C10.0483 8.96325 11.0852 7.82467 11.0852 6.44774C11.0852 6.41575 11.084 6.38376 11.0827 6.35176H17.9688ZM8.38592 4.40558C9.51182 4.40558 10.4281 5.32186 10.4281 6.44774C10.4281 7.57365 9.51227 8.48992 8.38592 8.48992C7.25966 8.48992 6.34378 7.57365 6.34378 6.44774C6.34378 5.32186 7.26007 4.40558 8.38592 4.40558ZM7.51727 5.90716C7.51727 5.54417 7.74122 5.23286 8.05779 5.10284V5.01753C8.05779 4.83624 8.20464 4.68899 8.38637 4.68899C8.56809 4.68899 8.71487 4.83583 8.71487 5.01753V5.10243C8.93927 5.1943 9.12092 5.37806 9.20507 5.61554C9.26574 5.78657 9.17634 5.97443 9.00572 6.03512C8.83509 6.09583 8.64684 6.00641 8.58609 5.83579C8.57132 5.79464 8.54424 5.75905 8.50847 5.73387C8.47269 5.7087 8.43009 5.69516 8.38637 5.69511C8.27154 5.69511 8.17434 5.79231 8.17434 5.90716C8.17434 6.02201 8.27154 6.11921 8.38637 6.11921C8.39784 6.11921 8.40894 6.11962 8.41997 6.12085C8.88347 6.13889 9.25547 6.52034 9.25547 6.98833C9.25547 7.35132 9.03152 7.6626 8.71487 7.79265V7.87792C8.71487 8.05927 8.56809 8.2065 8.38637 8.2065C8.20464 8.2065 8.05779 8.05965 8.05779 7.87792V7.79265C7.94507 7.7463 7.84329 7.67685 7.75899 7.58887C7.67462 7.50082 7.60959 7.39619 7.56812 7.28159C7.50654 7.11097 7.59474 6.9227 7.76537 6.86118C7.93599 6.79966 8.12424 6.88784 8.18582 7.05847C8.21657 7.14378 8.29697 7.20079 8.38592 7.20079C8.50284 7.20079 8.59802 7.10564 8.59802 6.98874C8.59802 6.87185 8.50284 6.77668 8.38592 6.77668C8.37444 6.77668 8.36342 6.77628 8.35232 6.77505C7.88882 6.75659 7.51727 6.37514 7.51727 5.90716ZM13.2512 3.20299V0.327803C13.2512 0.146514 13.3981 -0.000732422 13.5797 -0.000732422C13.7615 -0.000732422 13.9083 0.146104 13.9083 0.327803V3.20299C13.9083 3.38428 13.7615 3.53153 13.5797 3.53153C13.3981 3.53153 13.2512 3.38428 13.2512 3.20299ZM11.449 4.31206V2.33552C11.449 2.15423 11.5958 2.00699 11.7776 2.00699C11.9592 2.00699 12.1061 2.15382 12.1061 2.33552V4.31206C12.1061 4.49335 11.9592 4.64059 11.7776 4.64059C11.5958 4.64059 11.449 4.49335 11.449 4.31206ZM15.0067 3.20299V0.327803C15.0067 0.146514 15.1535 -0.000732422 15.3352 -0.000732422C15.5169 -0.000732422 15.6638 0.146104 15.6638 0.327803V3.20299C15.6638 3.38428 15.5169 3.53153 15.3352 3.53153C15.1535 3.53153 15.0067 3.38428 15.0067 3.20299ZM16.8089 4.31206V2.33552C16.8089 2.15423 16.9558 2.00699 17.1374 2.00699C17.3192 2.00699 17.466 2.15382 17.466 2.33552V4.31206C17.466 4.49335 17.3192 4.64059 17.1374 4.64059C16.9558 4.64059 16.8089 4.49335 16.8089 4.31206ZM20.7005 14.9138C20.5225 14.5512 20.2112 14.2789 19.8239 14.1468C19.4368 14.0151 19.0233 14.041 18.6608 14.2198L18.1276 14.4823C18.1083 14.4281 18.0857 14.3744 18.0599 14.3215C17.6883 13.568 16.7732 13.2572 16.0193 13.628L13.8143 14.7132L7.44095 13.0053C6.43812 12.7375 5.48163 12.877 4.59734 13.4196L3.40173 14.1546L3.24792 13.6406C3.14457 13.3018 2.78609 13.1099 2.45017 13.2125L0.602825 13.7657C0.438762 13.8142 0.303411 13.9245 0.22179 14.0754C0.140169 14.2268 0.122532 14.401 0.172161 14.5643L1.96249 20.542C2.04493 20.8196 2.30046 21.0001 2.57772 21.0001C2.63843 21.0001 2.69995 20.9914 2.76066 20.9734L4.60882 20.4197C4.94638 20.3176 5.13957 19.9595 5.03866 19.6216L4.90085 19.1609L10.4585 20.6502C10.7882 20.7384 11.1102 20.7823 11.4264 20.7823C11.9637 20.7823 12.4859 20.6551 13.0039 20.3996L20.0069 16.9535C20.7599 16.5823 21.0713 15.6672 20.7005 14.9138ZM16.3094 14.2173C16.7384 14.0061 17.2592 14.1833 17.4701 14.611C17.4963 14.6644 17.5164 14.7198 17.5312 14.776L14.9784 16.0327C14.9395 15.6772 14.777 15.3467 14.5194 15.0988L16.3094 14.2173ZM2.58675 20.3397L0.805032 14.3904L2.62326 13.8461L2.88986 14.7358C2.89272 14.7477 2.89601 14.7592 2.90011 14.7707L4.40457 19.7951L2.58675 20.3397ZM19.7165 16.3645L12.7135 19.8106C12.0388 20.1433 11.3567 20.2105 10.6279 20.0157L4.67937 18.4214L3.59655 14.8051L4.94105 13.9787C5.66538 13.5341 6.4496 13.42 7.27115 13.6394L13.6876 15.3588C14.1298 15.4777 14.4026 15.9182 14.3139 16.3661C14.3066 16.3904 14.3008 16.4125 14.2955 16.4326C14.2906 16.4519 14.286 16.4687 14.282 16.4806C14.1343 16.9079 13.6761 17.1508 13.2389 17.0335L9.39617 16.0044C9.31202 15.9819 9.22239 15.9937 9.14694 16.0372C9.07157 16.0807 9.01644 16.1525 8.99379 16.2365C8.97129 16.3207 8.98314 16.4103 9.02664 16.4858C9.07022 16.5611 9.14184 16.6162 9.22592 16.6389L13.0683 17.668C13.1987 17.7029 13.33 17.7196 13.46 17.7196C14.0482 17.7196 14.5994 17.3756 14.8492 16.8276L18.9508 14.8084C19.1558 14.707 19.3908 14.6927 19.6119 14.7682C19.8326 14.8433 20.0098 14.9978 20.1107 15.2029C20.3219 15.6324 20.1452 16.1533 19.7165 16.3645Z" fill="white"/>
</g>
<defs>
<clipPath id="clip0_630_579">
<rect width="21" height="21" fill="white"/>
</clipPath>
</defs>
</svg>
