<svg width="20" height="20" viewBox="0 0 20 20" fill="none" xmlns="http://www.w3.org/2000/svg">
<g clip-path="url(#clip0_630_609)">
<g clip-path="url(#clip1_630_609)">
<path d="M16.6667 14.412L15.8177 13.9033C15.5588 13.7486 15.2629 13.6668 14.9613 13.6667H13.6836C13.4221 13.6663 13.1616 13.6998 12.9087 13.7666L9.05907 14.8C8.85167 14.8573 8.66107 14.9635 8.50333 15.1098C8.3456 15.2561 8.22533 15.4382 8.15267 15.6407L4.76659 13.8088C4.49197 13.6526 4.17061 13.5995 3.86033 13.6591C3.74328 13.6797 3.62978 13.717 3.52325 13.7697C3.28253 13.8851 3.08276 14.0711 2.95067 14.3031C2.83515 14.5051 2.7744 14.7337 2.77441 14.9663C2.77265 15.1996 2.83269 15.4291 2.94841 15.6317C3.06413 15.8342 3.23141 16.0025 3.43325 16.1193L9.50193 19.7504C9.76553 19.9136 10.0694 20.0001 10.3794 20H15.0761C15.2858 20.0001 15.4936 19.9605 15.6886 19.8833L16.6667 19.4971V20H20V13.3333H16.6667V14.412ZM15.4437 19.2633C15.3269 19.3094 15.2025 19.3332 15.077 19.3333H10.3794C10.1915 19.3332 10.0075 19.2803 9.84827 19.1807L3.77133 15.5454C3.6699 15.4868 3.58581 15.4024 3.5276 15.3007C3.46939 15.1991 3.43915 15.0838 3.43996 14.9667C3.44045 14.8497 3.47122 14.7349 3.52929 14.6333C3.59571 14.5182 3.69555 14.426 3.81558 14.369C3.86835 14.3433 3.92445 14.3251 3.98225 14.315C4.02439 14.3071 4.06717 14.3031 4.11004 14.3031C4.22463 14.3027 4.33725 14.3327 4.43671 14.3897L8.1084 16.3737C8.1126 16.3941 8.1126 16.4141 8.118 16.4344C8.27593 17.0163 8.80373 17.4204 9.40673 17.4211C9.59233 17.4041 9.77607 17.3713 9.95607 17.3231L13.4193 16.3963L13.2474 15.7523L9.7954 16.675C9.6434 16.71 9.44727 16.75 9.40673 16.7534C9.26033 16.7537 9.11787 16.7058 9.0014 16.617C8.88493 16.5283 8.80093 16.4037 8.7624 16.2624C8.7516 16.222 8.74527 16.1807 8.743 16.139C8.743 16.139 8.7404 16.0583 8.743 16.03C8.7554 15.8938 8.809 15.7646 8.8966 15.6596C8.9842 15.5546 9.10167 15.4787 9.2334 15.4421L13.0814 14.4126C13.2778 14.36 13.4803 14.3334 13.6836 14.3333H14.9613C15.1423 14.3333 15.3199 14.3825 15.4749 14.4754L16.6667 15.189V18.78L15.4437 19.2633ZM17.3333 14H19.3333V19.3333H17.3333V14ZM13.7481 2.66668L11.96 0.87876C11.6821 0.599255 11.3515 0.377663 10.9874 0.226821C10.6233 0.07598 10.2329 -0.0011117 9.83873 1.2112e-05H5.64792C5.38925 0.000437055 5.13417 0.0606578 4.90263 0.175971L4.15554 0.549637C4.00585 0.624973 3.83945 0.660992 3.672 0.654304L3.33333 0.642429V1.2112e-05H0V7.33333H3.33333V6.33335H3.90008L4.10175 6.46668C4.6661 6.8414 5.32304 7.0528 6 7.0776V11.3333H20V2.66668H13.7481ZM2.66667 6.66667H0.666667V0.66668H2.66667V6.66667ZM4.47071 5.91197L4.09992 5.66668H3.33333V1.30943L3.64763 1.32068C3.92665 1.33061 4.20374 1.27056 4.45363 1.14601L5.20004 0.772307C5.33912 0.702827 5.49245 0.666663 5.64792 0.66668H9.83867C10.1452 0.665793 10.4489 0.725727 10.7321 0.843007C11.0153 0.960287 11.2724 1.13259 11.4886 1.34993L12.8053 2.66668H10.0547L9.2456 1.85776L8.7744 2.32897L11.1291 4.68376C11.3906 4.94418 11.3915 5.36735 11.1311 5.62909C10.8705 5.89064 10.4473 5.89147 10.1857 5.63105L8.21907 3.66439L7.98573 3.86443C7.34127 4.41164 6.39941 4.42564 5.73891 3.89764L5.54575 3.74105L5.12567 4.25897L5.32096 4.41731C5.52524 4.58058 5.75453 4.70981 6 4.80001V6.41068C5.4544 6.38647 4.92571 6.21403 4.47071 5.91197ZM9.2124 5.59993L9.71533 6.10305C10.2375 6.61735 11.0757 6.61818 11.5987 6.10468C11.1094 6.86233 11.3024 7.87067 12.0369 8.39387C12.7715 8.9172 13.7876 8.7702 14.3437 8.0604C14.8999 7.3504 14.7995 6.32864 14.1155 5.74072C13.4318 5.15285 12.4064 5.20672 11.7881 5.86297C11.9003 5.68671 11.9688 5.48617 11.9878 5.27807C12.0068 5.06997 11.9757 4.86035 11.8973 4.66668H16.3611C16.5044 5.50539 17.1613 6.16231 18 6.30568V7.69433C17.1613 7.83773 16.5044 8.49467 16.361 9.33333H9.639C9.4956 8.49467 8.83873 7.83773 8 7.69433V6.30568C8.4764 6.22542 8.90733 5.97457 9.2124 5.59993ZM12 7C12 6.44776 12.4477 6.00001 13 6.00001C13.5523 6.00001 14 6.44776 14 7C14 7.55227 13.5523 8 13 8C12.4477 8 12 7.55227 12 7ZM19.3333 10.6667H6.66667V4.93959C7.19513 4.97927 7.722 4.84465 8.16667 4.55635L8.73533 5.12501C8.612 5.2926 8.45107 5.42891 8.26547 5.52298C8.07987 5.61706 7.87473 5.66627 7.66667 5.66668H7.33333V8.33333H7.66667C8.403 8.33333 9 8.93033 9 9.66667V10H17V9.66667C17 8.93033 17.597 8.33333 18.3333 8.33333H18.6667V5.66668H18.3333C17.597 5.66668 17 5.06968 17 4.33335V4.00001H11.388L10.7213 3.33335H19.3333V10.6667Z" fill="white"/>
</g>
</g>
<defs>
<clipPath id="clip0_630_609">
<rect width="20" height="20" fill="white"/>
</clipPath>
<clipPath id="clip1_630_609">
<rect width="20" height="20" fill="white"/>
</clipPath>
</defs>
</svg>
